<svg width="15" height="15" viewBox="0 0 15 15" fill="none" xmlns="http://www.w3.org/2000/svg">
<path d="M7.24392 0C3.24962 0 0 3.24962 0 7.24392C0 11.2382 3.24962 14.4878 7.24392 14.4878C11.2382 14.4878 14.4878 11.2382 14.4878 7.24392C14.4878 6.42825 14.3458 5.64606 14.0959 4.9137L12.923 6.08659C12.9991 6.46037 13.039 6.84767 13.039 7.24392C13.039 10.4392 10.4392 13.039 7.24392 13.039C4.04863 13.039 1.44878 10.4392 1.44878 7.24392C1.44878 4.04862 4.04863 1.44878 7.24392 1.44878C8.42685 1.44878 9.52714 1.80655 10.4457 2.41794L11.4827 1.38087C10.2889 0.515948 8.82671 0 7.24392 0ZM13.9757 0.936616L6.51952 8.39276L4.13413 6.00736L3.10979 7.03169L6.51952 10.4414L15 1.96095L13.9757 0.936616Z" fill="#303030"/>
</svg>
