<svg width="80" height="15" viewBox="0 0 80 15" fill="none" xmlns="http://www.w3.org/2000/svg">
<path d="M20.2573 2.63121C21.108 2.50227 21.9679 2.44346 22.8282 2.45536C23.9994 2.45536 24.8364 2.68044 25.3956 3.13061C25.6849 3.36387 25.9167 3.66065 26.0728 3.99793C26.229 4.33521 26.3053 4.70393 26.2959 5.07548C26.3145 5.44359 26.2551 5.81147 26.1218 6.15508C25.9885 6.4987 25.7842 6.81032 25.5222 7.06959C24.8716 7.66747 23.9114 7.95586 22.7895 7.95586C22.5727 7.96005 22.3561 7.94356 22.1424 7.90662V10.9242H20.2573V2.63121ZM22.1424 6.44709C22.352 6.48806 22.5656 6.50459 22.779 6.49633C23.7883 6.49633 24.4108 5.98637 24.4108 5.13879C24.4108 4.36506 23.8763 3.90434 22.9161 3.90434C22.6568 3.89609 22.3974 3.91614 22.1424 3.96413V6.44709Z" fill="#394253"/>
<path d="M27.0168 2.06836H28.916V10.924H27.0168V2.06836Z" fill="#394253"/>
<path d="M35.7741 8.96513C35.7741 9.76347 35.7987 10.4141 35.8233 10.9241H34.1774L34.0895 10.0624H34.0543C33.85 10.3803 33.5666 10.6396 33.2317 10.8147C32.8969 10.9898 32.5222 11.0748 32.1446 11.0612C30.8961 11.0612 29.9993 10.2875 29.9993 8.40593V4.82568H31.8949V8.10699C31.8949 8.98974 32.1833 9.51377 32.855 9.51377C33.062 9.51421 33.2641 9.45102 33.434 9.33275C33.6038 9.21448 33.7332 9.04685 33.8046 8.85258C33.8573 8.72197 33.8824 8.58188 33.8785 8.4411V4.82568H35.7741V8.96513Z" fill="#394253"/>
<path d="M36.8715 6.77062C36.8715 6.01096 36.8469 5.36385 36.8223 4.82575H38.4295L38.5069 5.64872H38.542C38.7389 5.34015 39.0126 5.08809 39.3363 4.91729C39.66 4.7465 40.0226 4.66283 40.3884 4.67453C40.7415 4.65786 41.0911 4.75015 41.3899 4.93888C41.6888 5.12761 41.9223 5.40366 42.059 5.72961H42.0871C42.2968 5.42683 42.5691 5.17258 42.8855 4.98402C43.2374 4.78215 43.6368 4.67775 44.0425 4.68156C45.2172 4.68156 46.1 5.50452 46.1 7.34037V10.9241H44.2571V7.60766C44.2571 6.72139 43.9687 6.20088 43.3567 6.20088C43.1588 6.20398 42.9668 6.2691 42.8078 6.38709C42.6488 6.50507 42.5308 6.66997 42.4705 6.85855C42.432 7.01869 42.4119 7.1827 42.4107 7.3474V10.9241H40.5643V7.49511C40.5643 6.73545 40.29 6.21143 39.678 6.21143C39.4793 6.21911 39.2877 6.28765 39.1292 6.4078C38.9706 6.52794 38.8529 6.69388 38.7918 6.88316C38.7374 7.039 38.7123 7.20355 38.7179 7.3685V10.9241H36.8715V6.77062Z" fill="#394253"/>
<path d="M47.3239 10.924V6.77047C47.3239 6.01432 47.3239 5.38479 47.2747 4.88539H48.2348L48.284 6.08466H48.3227C48.4406 5.70494 48.6712 5.37007 48.9839 5.12454C49.274 4.89227 49.6357 4.76796 50.0073 4.77284C50.1074 4.77486 50.2072 4.78308 50.3063 4.79746V5.83144C50.1829 5.8126 50.0582 5.80437 49.9335 5.80683C49.7545 5.80267 49.5765 5.83481 49.4103 5.9013C49.2441 5.96779 49.093 6.06725 48.9663 6.19369C48.694 6.4688 48.5166 6.82364 48.4599 7.20657C48.4331 7.37522 48.4202 7.54577 48.4212 7.71652V10.9345L47.3239 10.924Z" fill="#394253"/>
<path d="M53.4117 4.76241C53.8046 4.74685 54.1962 4.8157 54.5602 4.96434C54.9242 5.11298 55.2522 5.33795 55.5219 5.62406C56.0706 6.23518 56.3584 7.03674 56.3237 7.85732C56.3237 8.89365 56.0248 9.6873 55.4269 10.2383C54.857 10.7762 54.1003 11.0713 53.3167 11.0613C52.9308 11.072 52.547 11.0014 52.1901 10.8542C51.8333 10.7069 51.5113 10.4863 51.2453 10.2066C50.9658 9.90468 50.7492 9.5502 50.6079 9.1638C50.4666 8.7774 50.4035 8.36678 50.4223 7.95579C50.4007 7.53017 50.4652 7.10457 50.6121 6.7045C50.7589 6.30443 50.9851 5.93813 51.2769 5.62758C51.5542 5.34442 51.8869 5.12146 52.2542 4.9726C52.6215 4.82375 53.0155 4.75219 53.4117 4.76241ZM54.7411 6.2958C54.5986 6.06853 54.3979 5.88349 54.1598 5.75983C53.9218 5.63616 53.655 5.57836 53.3871 5.59241C53.1171 5.58097 52.8488 5.63977 52.6084 5.76306C52.368 5.88635 52.1637 6.06991 52.0155 6.2958C51.6914 6.77978 51.5255 7.35242 51.5407 7.93469C51.5189 8.53021 51.6999 9.11549 52.0542 9.59469C52.2047 9.80037 52.4016 9.96766 52.6289 10.083C52.8563 10.1983 53.1076 10.2584 53.3625 10.2584C53.6173 10.2584 53.8687 10.1983 54.096 10.083C54.3233 9.96766 54.5202 9.80037 54.6708 9.59469C55.0339 9.11277 55.219 8.52003 55.1948 7.91711C55.2069 7.34374 55.049 6.7796 54.7411 6.2958Z" fill="#394253"/>
<path d="M61.3952 9.89011L61.5816 10.7131C61.037 10.9578 60.4447 11.078 59.8477 11.0648C59.4448 11.0831 59.0424 11.0171 58.6664 10.8712C58.2903 10.7253 57.9488 10.5025 57.6637 10.2172C57.3848 9.91845 57.1683 9.56703 57.027 9.18355C56.8857 8.80006 56.8224 8.39221 56.8407 7.98393C56.86 7.43118 57.0164 6.89189 57.2959 6.41465C57.5754 5.9374 57.9693 5.53719 58.442 5.25007C58.9147 4.96295 59.4514 4.79794 60.0038 4.76991C60.5562 4.74188 61.1068 4.8517 61.6062 5.08948L61.3565 5.90893C60.9635 5.70963 60.5274 5.61056 60.0869 5.62054C59.7927 5.60783 59.4993 5.66125 59.2285 5.7769C58.9576 5.89254 58.7162 6.06746 58.5218 6.28876C58.1393 6.74345 57.9377 7.32316 57.9556 7.91711C57.9397 8.21696 57.9838 8.51698 58.0852 8.7996C58.1867 9.08221 58.3435 9.34176 58.5465 9.56303C58.7409 9.76428 58.9752 9.92267 59.2344 10.0281C59.4936 10.1334 59.772 10.1835 60.0517 10.175C60.5145 10.1747 60.9721 10.0777 61.3952 9.89011Z" fill="#394253"/>
<path d="M63.5263 2.06836V7.66733H63.551C63.7198 7.43521 63.9026 7.20661 64.075 6.96394L65.8616 4.87839H67.1699L64.8522 7.36839L67.511 10.924H66.164L64.089 8.01902L63.5263 8.64504V10.9135H62.4431V2.06836H63.5263Z" fill="#394253"/>
<path d="M72.7196 8.10341H68.4782C68.4598 8.3937 68.5033 8.68459 68.6058 8.95682C68.7082 9.22904 68.8673 9.47641 69.0726 9.68252C69.4819 10.0353 70.0097 10.22 70.5497 10.1995C71.122 10.2133 71.6909 10.1079 72.2202 9.89002L72.4207 10.6743C71.7825 10.9438 71.0946 11.0757 70.402 11.0612C70.0012 11.082 69.6006 11.0182 69.2262 10.874C68.8517 10.7298 68.5118 10.5084 68.2285 10.2241C67.6818 9.62328 67.3948 8.83061 67.4302 8.01901C67.4019 7.17761 67.6765 6.35401 68.2039 5.69783C68.4533 5.39681 68.7685 5.15715 69.1252 4.99738C69.482 4.83761 69.8707 4.762 70.2613 4.77639C70.6841 4.7665 71.1026 4.86326 71.4782 5.05774C71.8008 5.22345 72.0711 5.47548 72.2589 5.78575C72.4274 6.06768 72.5553 6.37196 72.6388 6.6896C72.7182 6.98911 72.7584 7.29766 72.7583 7.60753C72.7607 7.77366 72.7477 7.93966 72.7196 8.10341ZM68.4993 7.31914H71.7033C71.7134 6.88707 71.5906 6.46231 71.3516 6.10228C71.2209 5.91625 71.0435 5.76793 70.8373 5.67223C70.6311 5.57654 70.4033 5.53684 70.1769 5.55715C69.95 5.54556 69.7237 5.58909 69.5173 5.68402C69.3109 5.77895 69.1305 5.92246 68.9917 6.10228C68.7135 6.45118 68.5403 6.872 68.4923 7.31562L68.4993 7.31914Z" fill="#394253"/>
<path d="M73.9436 3.76355L75.0162 3.44702V4.89248H76.5883V5.72952H75.0162V8.9862C75.0162 9.76697 75.2906 10.1573 75.8392 10.1573C76.0538 10.1625 76.268 10.1376 76.4758 10.0835L76.525 10.9205C76.2108 11.0237 75.8815 11.0736 75.5508 11.0682C75.3318 11.0802 75.1128 11.0453 74.9084 10.9659C74.704 10.8864 74.519 10.7642 74.3656 10.6075C74.0842 10.291 73.9436 9.76345 73.9436 9.02137V5.72248H73.0081V4.88545H73.9436V3.76355Z" fill="#394253"/>
<path d="M78.3328 0.000448671C78.5516 -0.00427072 78.7691 0.0353623 78.9722 0.116961C79.1753 0.198559 79.3597 0.320432 79.5145 0.475235C79.6718 0.624189 79.7962 0.804378 79.8798 1.00424C79.9633 1.20411 80.0042 1.41923 79.9998 1.63583C80.004 1.85426 79.9626 2.07118 79.8785 2.27279C79.7943 2.47441 79.6692 2.65632 79.5109 2.80697C79.1891 3.11378 78.7616 3.28494 78.3169 3.28494C77.8723 3.28494 77.4447 3.11378 77.1229 2.80697C76.9647 2.65632 76.8395 2.47441 76.7554 2.27279C76.6712 2.07118 76.6299 1.85426 76.6341 1.63583C76.6301 1.41833 76.6722 1.20245 76.7577 1.00241C76.8432 0.802373 76.97 0.622705 77.13 0.475235C77.2886 0.319813 77.4768 0.197731 77.6833 0.116188C77.8899 0.0346443 78.1107 -0.00470893 78.3328 0.000448671ZM78.3117 0.327524C78.1439 0.32509 77.9775 0.358318 77.8235 0.42501C77.6695 0.491701 77.5314 0.590337 77.4184 0.714389C77.1819 0.965023 77.0502 1.29655 77.0502 1.6411C77.0502 1.98566 77.1819 2.31718 77.4184 2.56782C77.5357 2.69042 77.6773 2.78722 77.8341 2.85201C77.991 2.91681 78.1596 2.94818 78.3292 2.94413C78.4958 2.95085 78.6618 2.92095 78.8155 2.85654C78.9693 2.79213 79.107 2.69477 79.219 2.57133C79.4518 2.31818 79.5811 1.9868 79.5811 1.64286C79.5811 1.29893 79.4518 0.967543 79.219 0.714389C79.104 0.589077 78.9636 0.489748 78.8071 0.423035C78.6506 0.356322 78.4817 0.32376 78.3117 0.327524ZM78.062 1.83629V2.48692H77.6821V0.848032C77.8908 0.81918 78.101 0.802739 78.3117 0.798795C78.507 0.783431 78.7023 0.828883 78.8709 0.92892C78.9269 0.968081 78.9718 1.02102 79.0014 1.08263C79.0309 1.14424 79.0441 1.21242 79.0397 1.28061C79.0397 1.46818 78.9224 1.59831 78.688 1.67099V1.68858C78.7666 1.7238 78.8346 1.77903 78.8852 1.84877C78.9358 1.91851 78.9673 2.00031 78.9764 2.08599C78.9983 2.22435 79.0385 2.35918 79.0959 2.48692H78.6985C78.638 2.35945 78.5943 2.22469 78.5684 2.08599C78.5403 1.9207 78.4277 1.83629 78.2167 1.83629H78.062ZM78.062 1.09773V1.56549H78.2413C78.4945 1.56549 78.6211 1.48812 78.6211 1.32634C78.6211 1.16456 78.5051 1.07663 78.2695 1.07663C78.2032 1.07595 78.1371 1.08303 78.0725 1.09773H78.062Z" fill="#394253"/>
<path fill-rule="evenodd" clip-rule="evenodd" d="M8.93285 1.85741C9.03672 1.86449 9.14094 1.85014 9.23904 1.81526C9.33713 1.78037 9.42701 1.7257 9.50309 1.65463C9.57917 1.58356 9.63983 1.49761 9.6813 1.40211C9.72277 1.30662 9.74417 1.20361 9.74417 1.0995C9.74417 0.995391 9.72277 0.892393 9.6813 0.796898C9.63983 0.701403 9.57917 0.61545 9.50309 0.544379C9.42701 0.473308 9.33713 0.418635 9.23904 0.383753C9.14094 0.34887 9.03672 0.334522 8.93285 0.341602C8.74077 0.354695 8.56082 0.440235 8.42939 0.580929C8.29796 0.721622 8.22485 0.906971 8.22485 1.0995C8.22485 1.29203 8.29796 1.47739 8.42939 1.61808C8.56082 1.75877 8.74077 1.84431 8.93285 1.85741Z" fill="url(#paint0_linear_6_1167)"/>
<path fill-rule="evenodd" clip-rule="evenodd" d="M8.15209 3.16575C8.25596 3.17283 8.36018 3.15849 8.45828 3.1236C8.55637 3.08872 8.64625 3.03405 8.72233 2.96298C8.79841 2.89191 8.85906 2.80595 8.90054 2.71046C8.94201 2.61496 8.96341 2.51196 8.96341 2.40785C8.96341 2.30374 8.94201 2.20074 8.90054 2.10524C8.85906 2.00975 8.79841 1.9238 8.72233 1.85273C8.64625 1.78166 8.55637 1.72699 8.45828 1.6921C8.36018 1.65722 8.25596 1.64287 8.15209 1.64995C7.96001 1.66304 7.78006 1.74859 7.64863 1.88928C7.5172 2.02997 7.44409 2.21532 7.44409 2.40785C7.44409 2.60038 7.5172 2.78574 7.64863 2.92643C7.78006 3.06712 7.96001 3.15266 8.15209 3.16575Z" fill="url(#paint1_linear_6_1167)"/>
<path fill-rule="evenodd" clip-rule="evenodd" d="M8.93286 2.40961C8.9347 2.60959 9.01495 2.80085 9.15636 2.94226C9.29777 3.08367 9.48903 3.16392 9.689 3.16575C9.79287 3.17283 9.89709 3.15849 9.99519 3.1236C10.0933 3.08872 10.1832 3.03405 10.2592 2.96298C10.3353 2.89191 10.396 2.80595 10.4374 2.71046C10.4789 2.61496 10.5003 2.51196 10.5003 2.40785C10.5003 2.30374 10.4789 2.20074 10.4374 2.10524C10.396 2.00975 10.3353 1.9238 10.2592 1.85273C10.1832 1.78166 10.0933 1.72699 9.99519 1.6921C9.89709 1.65722 9.79287 1.64287 9.689 1.64995C9.48843 1.6518 9.29664 1.73254 9.15513 1.8747C9.01363 2.01687 8.93378 2.20903 8.93286 2.40961Z" fill="url(#paint2_linear_6_1167)"/>
<path fill-rule="evenodd" clip-rule="evenodd" d="M7.40654 4.47414C7.55709 4.47484 7.70444 4.43079 7.8299 4.34758C7.95537 4.26438 8.05328 4.14577 8.11121 4.00682C8.16914 3.86787 8.18448 3.71484 8.15528 3.56715C8.12608 3.41946 8.05366 3.28378 7.94721 3.17733C7.84076 3.07088 7.70508 2.99846 7.55739 2.96926C7.40971 2.94006 7.25667 2.9554 7.11772 3.01333C6.97877 3.07126 6.86016 3.16918 6.77696 3.29464C6.69375 3.4201 6.6497 3.56746 6.6504 3.718C6.65132 3.91826 6.73129 4.11005 6.87289 4.25165C7.0145 4.39326 7.20629 4.47322 7.40654 4.47414Z" fill="url(#paint3_linear_6_1167)"/>
<path fill-rule="evenodd" clip-rule="evenodd" d="M9.69611 3.71791C9.69711 3.8406 9.72769 3.96125 9.78524 4.06961C9.84279 4.17798 9.92561 4.27087 10.0267 4.34041C9.92778 4.29358 9.81962 4.26954 9.71018 4.27007C9.61019 4.26817 9.51085 4.28641 9.41806 4.32369C9.32526 4.36098 9.24092 4.41655 9.17004 4.48709C9.09917 4.55764 9.04321 4.64173 9.00549 4.73435C8.96778 4.82696 8.94908 4.92622 8.95052 5.02621C8.95005 5.1261 8.96938 5.2251 9.00739 5.31747C9.0454 5.40985 9.10134 5.49378 9.17198 5.56441C9.24261 5.63505 9.32654 5.69098 9.41892 5.72899C9.51129 5.76701 9.61029 5.78634 9.71018 5.78587C9.91108 5.78404 10.1032 5.70341 10.2453 5.56134C10.3874 5.41928 10.468 5.22712 10.4698 5.02621C10.4698 4.90372 10.44 4.78306 10.3831 4.67463C10.3261 4.56619 10.2436 4.47322 10.1428 4.40372C10.2403 4.45096 10.3474 4.47503 10.4558 4.47405C10.6479 4.46096 10.8278 4.37542 10.9592 4.23473C11.0907 4.09403 11.1638 3.90868 11.1638 3.71615C11.1638 3.52362 11.0907 3.33827 10.9592 3.19758C10.8278 3.05689 10.6479 2.97134 10.4558 2.95825C10.2549 2.96009 10.0627 3.04071 9.92063 3.18278C9.77857 3.32485 9.69794 3.517 9.69611 3.71791Z" fill="url(#paint4_linear_6_1167)"/>
<path fill-rule="evenodd" clip-rule="evenodd" d="M10.4837 5.02624C10.4833 5.12583 10.5025 5.22454 10.5403 5.31668C10.5781 5.40883 10.6337 5.4926 10.7039 5.56319C10.7742 5.63377 10.8577 5.68979 10.9497 5.72801C11.0417 5.76623 11.1403 5.7859 11.2399 5.7859C11.3304 5.78545 11.4199 5.76753 11.5036 5.73314C11.3636 5.84091 11.2664 5.9949 11.2294 6.16766C11.1923 6.34042 11.2178 6.52072 11.3014 6.67643C11.3849 6.83213 11.521 6.95311 11.6854 7.0178C11.8498 7.0825 12.0319 7.0867 12.1991 7.02966C12.3663 6.97262 12.5079 6.85805 12.5985 6.70637C12.6891 6.55469 12.7229 6.37575 12.6938 6.20147C12.6648 6.02718 12.5748 5.86887 12.4399 5.75476C12.305 5.64064 12.134 5.57814 11.9573 5.5784C11.867 5.57773 11.7775 5.59445 11.6935 5.62764C11.8212 5.53311 11.9158 5.40061 11.9635 5.24909C12.0113 5.09758 12.01 4.93482 11.9596 4.78414C11.9092 4.63346 11.8125 4.50258 11.6832 4.41024C11.5539 4.3179 11.3987 4.26885 11.2399 4.2701C11.1402 4.26867 11.0412 4.28726 10.9488 4.32476C10.8564 4.36226 10.7725 4.4179 10.702 4.4884C10.6315 4.5589 10.5759 4.64282 10.5384 4.7352C10.5009 4.82758 10.4823 4.92655 10.4837 5.02624Z" fill="url(#paint5_linear_6_1167)"/>
<path fill-rule="evenodd" clip-rule="evenodd" d="M5.96108 7.06599C6.15793 7.06508 6.34651 6.98671 6.48604 6.84784C6.62556 6.70897 6.70482 6.52076 6.70667 6.32392C6.70576 6.21252 6.67966 6.10277 6.63033 6.00288C6.58099 5.903 6.5097 5.81557 6.4218 5.74714C6.49571 5.77109 6.57272 5.78412 6.6504 5.78583C6.85097 5.78398 7.04276 5.70324 7.18427 5.56107C7.32577 5.41891 7.40562 5.22675 7.40654 5.02617C7.40831 4.8967 7.37696 4.76893 7.31547 4.65499C7.25398 4.54104 7.16439 4.44471 7.0552 4.37513C6.94601 4.30554 6.82085 4.26503 6.6916 4.25742C6.56234 4.24981 6.43329 4.27536 6.31669 4.33165C6.20009 4.38794 6.09981 4.4731 6.02538 4.57904C5.95094 4.68498 5.90482 4.80819 5.89139 4.93697C5.87796 5.06575 5.89767 5.19582 5.94864 5.31484C5.99962 5.43386 6.08017 5.53787 6.18264 5.61701C6.11108 5.59334 6.03643 5.58031 5.96108 5.57833C5.85909 5.57131 5.75676 5.58534 5.66043 5.61954C5.56409 5.65375 5.47582 5.7074 5.4011 5.77715C5.32638 5.84691 5.2668 5.93129 5.22606 6.02505C5.18533 6.1188 5.16431 6.21994 5.16431 6.32216C5.16431 6.42438 5.18533 6.52552 5.22606 6.61927C5.2668 6.71303 5.32638 6.79741 5.4011 6.86717C5.47582 6.93692 5.56409 6.99057 5.66043 7.02478C5.75676 7.05898 5.85909 7.07301 5.96108 7.06599Z" fill="url(#paint6_linear_6_1167)"/>
<path fill-rule="evenodd" clip-rule="evenodd" d="M6.71708 6.32398C6.71723 6.45002 6.74964 6.57392 6.81121 6.6839C6.87279 6.79387 6.96148 6.88626 7.06886 6.95227C7.17623 7.01828 7.29871 7.0557 7.42464 7.06099C7.55057 7.06628 7.67576 7.03925 7.78829 6.98248C7.90082 6.92572 7.99695 6.84109 8.06753 6.73667C8.13811 6.63224 8.18079 6.5115 8.19152 6.38591C8.20224 6.26033 8.18064 6.13409 8.12878 6.01921C8.07693 5.90434 7.99653 5.80464 7.89525 5.72962C8.06641 5.78861 8.25301 5.78454 8.42144 5.71814C8.58986 5.65173 8.72903 5.52736 8.81387 5.36743C8.89872 5.2075 8.92365 5.02253 8.88419 4.84584C8.84473 4.66915 8.74347 4.51237 8.59864 4.40373C8.69617 4.45098 8.80329 4.47505 8.91165 4.47407C9.10373 4.46098 9.28368 4.37544 9.41511 4.23474C9.54654 4.09405 9.61965 3.9087 9.61965 3.71617C9.61965 3.52364 9.54654 3.33829 9.41511 3.1976C9.28368 3.0569 9.10373 2.97136 8.91165 2.95827C8.74942 2.9572 8.59114 3.00833 8.4602 3.10412C8.32926 3.19991 8.2326 3.33527 8.18451 3.49022C8.13641 3.64516 8.13942 3.81146 8.19309 3.96456C8.24677 4.11766 8.34826 4.24944 8.48258 4.34043C8.38366 4.2936 8.2755 4.26956 8.16606 4.27009C8.00736 4.27009 7.85268 4.32002 7.72393 4.41281C7.59519 4.50561 7.4989 4.63656 7.44872 4.78712C7.39853 4.93767 7.39699 5.1002 7.44431 5.25169C7.49163 5.40317 7.58541 5.53592 7.71237 5.63114C7.62355 5.59745 7.52952 5.5796 7.43453 5.57839C7.24111 5.58391 7.05758 5.66512 6.92342 5.80455C6.78925 5.94398 6.71516 6.13049 6.71708 6.32398Z" fill="url(#paint7_linear_6_1167)"/>
<path fill-rule="evenodd" clip-rule="evenodd" d="M8.95052 5.57817C8.76208 5.59114 8.58558 5.67514 8.45669 5.81321C8.32779 5.95128 8.2561 6.13313 8.2561 6.32201C8.2561 6.51089 8.32779 6.69274 8.45669 6.83081C8.58558 6.96888 8.76208 7.05288 8.95052 7.06584C9.0525 7.07286 9.15484 7.05883 9.25117 7.02463C9.3475 6.99042 9.43577 6.93677 9.51049 6.86702C9.58522 6.79726 9.6448 6.71288 9.68553 6.61912C9.72627 6.52537 9.74729 6.42423 9.74729 6.32201C9.74729 6.21979 9.72627 6.11865 9.68553 6.02489C9.6448 5.93114 9.58522 5.84676 9.51049 5.777C9.43577 5.70725 9.3475 5.6536 9.25117 5.61939C9.15484 5.58519 9.0525 5.57116 8.95052 5.57817Z" fill="url(#paint8_linear_6_1167)"/>
<path fill-rule="evenodd" clip-rule="evenodd" d="M10.4557 5.57817C10.3537 5.57116 10.2514 5.58519 10.1551 5.61939C10.0587 5.6536 9.97045 5.70725 9.89573 5.777C9.82101 5.84676 9.76143 5.93114 9.72069 6.02489C9.67996 6.11865 9.65894 6.21979 9.65894 6.32201C9.65894 6.42423 9.67996 6.52537 9.72069 6.61912C9.76143 6.71288 9.82101 6.79726 9.89573 6.86702C9.97045 6.93677 10.0587 6.99042 10.1551 7.02463C10.2514 7.05883 10.3537 7.07286 10.4557 7.06584C10.6441 7.05288 10.8206 6.96888 10.9495 6.83081C11.0784 6.69274 11.1501 6.51089 11.1501 6.32201C11.1501 6.13313 11.0784 5.95128 10.9495 5.81321C10.8206 5.67514 10.6441 5.59114 10.4557 5.57817Z" fill="url(#paint9_linear_6_1167)"/>
<path fill-rule="evenodd" clip-rule="evenodd" d="M5.00784 8.42C5.1074 8.4214 5.20623 8.40295 5.29857 8.36571C5.39091 8.32847 5.4749 8.2732 5.54563 8.20312C5.61636 8.13305 5.67241 8.04958 5.71051 7.95759C5.7486 7.8656 5.76798 7.76694 5.7675 7.66738C5.77452 7.56539 5.76049 7.46306 5.72628 7.36672C5.69208 7.27039 5.63843 7.18212 5.56867 7.1074C5.49892 7.03268 5.41454 6.9731 5.32078 6.93236C5.22702 6.89163 5.12589 6.87061 5.02367 6.87061C4.92144 6.87061 4.82031 6.89163 4.72655 6.93236C4.6328 6.9731 4.54842 7.03268 4.47866 7.1074C4.4089 7.18212 4.35526 7.27039 4.32105 7.36672C4.28685 7.46306 4.27282 7.56539 4.27983 7.66738C4.27884 7.86306 4.35445 8.05136 4.4905 8.19201C4.62655 8.33266 4.81224 8.41449 5.00784 8.42Z" fill="url(#paint10_linear_6_1167)"/>
<path fill-rule="evenodd" clip-rule="evenodd" d="M5.9751 7.66752C5.97601 7.86437 6.05438 8.05296 6.19325 8.19248C6.33212 8.33201 6.52033 8.41127 6.71717 8.41311C6.81416 8.41219 6.91002 8.39218 6.99928 8.35421C7.08853 8.31624 7.16943 8.26106 7.23736 8.19183C7.30529 8.12259 7.35892 8.04066 7.39518 7.9507C7.43144 7.86074 7.44962 7.76451 7.4487 7.66752C7.4501 7.57074 7.43219 7.47465 7.39601 7.38487C7.35983 7.29509 7.30612 7.21342 7.238 7.14465C7.16989 7.07588 7.08874 7.02139 6.99931 6.98435C6.90988 6.94732 6.81397 6.92849 6.71717 6.92896C6.52097 6.92896 6.33275 7.00666 6.19369 7.14507C6.05462 7.28347 5.97603 7.47132 5.9751 7.66752Z" fill="url(#paint11_linear_6_1167)"/>
<path fill-rule="evenodd" clip-rule="evenodd" d="M8.95036 7.66738C8.95738 7.56539 8.94335 7.46306 8.90915 7.36672C8.87494 7.27039 8.82129 7.18212 8.75154 7.1074C8.68178 7.03268 8.5974 6.9731 8.50364 6.93236C8.40989 6.89163 8.30875 6.87061 8.20653 6.87061C8.10431 6.87061 8.00317 6.89163 7.90942 6.93236C7.81566 6.9731 7.73128 7.03268 7.66152 7.1074C7.59176 7.18212 7.53812 7.27039 7.50391 7.36672C7.46971 7.46306 7.45568 7.56539 7.4627 7.66738C7.45568 7.76936 7.46971 7.87169 7.50391 7.96803C7.53812 8.06436 7.59176 8.15263 7.66152 8.22735C7.73128 8.30207 7.81566 8.36165 7.90942 8.40239C8.00317 8.44312 8.10431 8.46414 8.20653 8.46414C8.30875 8.46414 8.40989 8.44312 8.50364 8.40239C8.5974 8.36165 8.68178 8.30207 8.75154 8.22735C8.82129 8.15263 8.87494 8.06436 8.90915 7.96803C8.94335 7.87169 8.95738 7.76936 8.95036 7.66738Z" fill="url(#paint12_linear_6_1167)"/>
<path fill-rule="evenodd" clip-rule="evenodd" d="M8.9646 7.66747C8.9646 7.86521 9.04315 8.05486 9.18298 8.19468C9.3228 8.33451 9.51245 8.41306 9.71019 8.41306C9.90793 8.41306 10.0976 8.33451 10.2374 8.19468C10.3772 8.05486 10.4558 7.86521 10.4558 7.66747C10.4558 7.46972 10.3772 7.28008 10.2374 7.14025C10.0976 7.00043 9.90793 6.92188 9.71019 6.92188C9.51245 6.92188 9.3228 7.00043 9.18298 7.14025C9.04315 7.28008 8.9646 7.46972 8.9646 7.66747Z" fill="url(#paint13_linear_6_1167)"/>
<path fill-rule="evenodd" clip-rule="evenodd" d="M11.2119 6.92896C11.0156 6.92896 10.8274 7.00666 10.6884 7.14507C10.5493 7.28347 10.4707 7.47132 10.4698 7.66752C10.4628 7.7695 10.4768 7.87184 10.511 7.96817C10.5452 8.0645 10.5988 8.15277 10.6686 8.2275C10.7384 8.30222 10.8227 8.3618 10.9165 8.40253C11.0103 8.44327 11.1114 8.46429 11.2136 8.46429C11.3158 8.46429 11.417 8.44327 11.5107 8.40253C11.6045 8.3618 11.6889 8.30222 11.7586 8.2275C11.8284 8.15277 11.882 8.0645 11.9162 7.96817C11.9504 7.87184 11.9645 7.7695 11.9574 7.66752C11.957 7.57007 11.9373 7.47366 11.8996 7.38381C11.8619 7.29395 11.8068 7.2124 11.7376 7.14382C11.6684 7.07524 11.5863 7.02097 11.4961 6.9841C11.4059 6.94724 11.3093 6.9285 11.2119 6.92896Z" fill="url(#paint14_linear_6_1167)"/>
<path fill-rule="evenodd" clip-rule="evenodd" d="M11.9714 7.66747C11.975 7.86408 12.0548 8.05164 12.1938 8.19069C12.3329 8.32974 12.5204 8.40945 12.717 8.41306C12.9139 8.41121 13.1021 8.33196 13.241 8.19243C13.3798 8.0529 13.4582 7.86432 13.4591 7.66747C13.4596 7.56972 13.4407 7.47285 13.4036 7.38241C13.3665 7.29197 13.312 7.20975 13.243 7.14047C13.174 7.07118 13.0921 7.01621 13.0018 6.9787C12.9116 6.94118 12.8148 6.92187 12.717 6.92188C12.5196 6.9228 12.3305 7.00165 12.1908 7.14128C12.0512 7.2809 11.9724 7.47001 11.9714 7.66747Z" fill="url(#paint15_linear_6_1167)"/>
<path fill-rule="evenodd" clip-rule="evenodd" d="M3.53441 9.72815C3.63245 9.72861 3.72962 9.70964 3.82029 9.67234C3.91095 9.63504 3.99333 9.58013 4.06266 9.51081C4.13199 9.44148 4.18689 9.3591 4.2242 9.26843C4.2615 9.17776 4.28047 9.0806 4.28 8.98255C4.27816 8.78571 4.1989 8.5975 4.05937 8.45863C3.91984 8.31976 3.73126 8.24139 3.53441 8.24048C3.33839 8.24406 3.15134 8.32328 3.01239 8.46158C2.87343 8.59988 2.79332 8.78655 2.78882 8.98255C2.78974 9.18001 2.86859 9.36912 3.00822 9.50874C3.14784 9.64837 3.33695 9.72722 3.53441 9.72815Z" fill="url(#paint16_linear_6_1167)"/>
<path fill-rule="evenodd" clip-rule="evenodd" d="M5.14868 9.0952C5.15052 9.29144 5.22929 9.47913 5.36806 9.6179C5.50683 9.75667 5.69451 9.83544 5.89076 9.83727C5.9885 9.83774 6.08538 9.81889 6.17582 9.7818C6.26626 9.74472 6.34848 9.69013 6.41776 9.62117C6.48704 9.55222 6.54201 9.47026 6.57953 9.38C6.61704 9.28973 6.63635 9.19295 6.63635 9.0952C6.63542 8.89774 6.55657 8.70864 6.41695 8.56901C6.27732 8.42938 6.08821 8.35053 5.89076 8.34961C5.69476 8.35411 5.50809 8.43422 5.36979 8.57318C5.23148 8.71213 5.15226 8.89918 5.14868 9.0952Z" fill="url(#paint17_linear_6_1167)"/>
<path fill-rule="evenodd" clip-rule="evenodd" d="M8.16607 9.454C8.16537 9.30838 8.12164 9.16622 8.04037 9.04538C7.9591 8.92455 7.84393 8.83043 7.70932 8.77487C7.57472 8.71931 7.42669 8.70478 7.28385 8.7331C7.14101 8.76143 7.00973 8.83135 6.90652 8.93408C6.80331 9.0368 6.73276 9.16775 6.70376 9.31046C6.67476 9.45316 6.68859 9.60125 6.74352 9.73612C6.79844 9.87099 6.89201 9.98661 7.01246 10.0684C7.13291 10.1503 7.27487 10.1947 7.42048 10.1961C7.51823 10.1965 7.6151 10.1777 7.70554 10.1406C7.79598 10.1035 7.8782 10.0489 7.94748 9.97997C8.01676 9.91102 8.07174 9.82906 8.10925 9.7388C8.14676 9.64853 8.16607 9.55175 8.16607 9.454Z" fill="url(#paint18_linear_6_1167)"/>
<path fill-rule="evenodd" clip-rule="evenodd" d="M8.96453 9.72815C9.06258 9.72861 9.15974 9.70964 9.25041 9.67234C9.34108 9.63504 9.42346 9.58013 9.49278 9.51081C9.56211 9.44148 9.61701 9.3591 9.65432 9.26843C9.69162 9.17776 9.71059 9.0806 9.71012 8.98255C9.70828 8.78571 9.62902 8.5975 9.48949 8.45863C9.34997 8.31976 9.16139 8.24139 8.96453 8.24048C8.77036 8.24672 8.58596 8.32713 8.44924 8.46515C8.31253 8.60317 8.23389 8.78833 8.22949 8.98255C8.23038 9.17821 8.30777 9.36575 8.44513 9.50508C8.58249 9.64441 8.76891 9.72447 8.96453 9.72815Z" fill="url(#paint19_linear_6_1167)"/>
<path fill-rule="evenodd" clip-rule="evenodd" d="M11.2118 8.98274C11.1989 8.7943 11.1149 8.61781 10.9768 8.48891C10.8387 8.36002 10.6569 8.28833 10.468 8.28833C10.2791 8.28833 10.0973 8.36002 9.95921 8.48891C9.82114 8.61781 9.73714 8.7943 9.72417 8.98274C9.71715 9.08473 9.73118 9.18706 9.76539 9.28339C9.79959 9.37973 9.85324 9.468 9.923 9.54272C9.99276 9.61744 10.0771 9.67702 10.1709 9.71776C10.2646 9.75849 10.3658 9.77951 10.468 9.77951C10.5702 9.77951 10.6714 9.75849 10.7651 9.71776C10.8589 9.67702 10.9433 9.61744 11.013 9.54272C11.0828 9.468 11.1364 9.37973 11.1706 9.28339C11.2048 9.18706 11.2189 9.08473 11.2118 8.98274Z" fill="url(#paint20_linear_6_1167)"/>
<path fill-rule="evenodd" clip-rule="evenodd" d="M11.2258 9.01097C11.2258 9.20872 11.3044 9.39836 11.4442 9.53819C11.584 9.67801 11.7737 9.75657 11.9714 9.75657C12.1692 9.75657 12.3588 9.67801 12.4986 9.53819C12.6385 9.39836 12.717 9.20872 12.717 9.01097C12.717 8.81323 12.6385 8.62359 12.4986 8.48376C12.3588 8.34393 12.1692 8.26538 11.9714 8.26538C11.7737 8.26538 11.584 8.34393 11.4442 8.48376C11.3044 8.62359 11.2258 8.81323 11.2258 9.01097Z" fill="url(#paint21_linear_6_1167)"/>
<path fill-rule="evenodd" clip-rule="evenodd" d="M12.9915 9.03906C12.9915 9.18652 13.0352 9.33068 13.1171 9.45329C13.199 9.5759 13.3155 9.67146 13.4517 9.7279C13.588 9.78433 13.7379 9.79909 13.8825 9.77032C14.0271 9.74155 14.16 9.67054 14.2643 9.56627C14.3685 9.462 14.4396 9.32915 14.4683 9.18451C14.4971 9.03988 14.4823 8.88997 14.4259 8.75373C14.3695 8.61749 14.2739 8.50105 14.1513 8.41912C14.0287 8.33719 13.8845 8.29347 13.7371 8.29347C13.639 8.293 13.5418 8.31197 13.4512 8.34927C13.3605 8.38658 13.2781 8.44148 13.2088 8.51081C13.1395 8.58013 13.0846 8.66251 13.0473 8.75318C13.01 8.84385 12.991 8.94102 12.9915 9.03906Z" fill="url(#paint22_linear_6_1167)"/>
<path fill-rule="evenodd" clip-rule="evenodd" d="M9.73822 10.8326C9.86566 10.8319 9.99002 10.7934 10.0955 10.7219C10.2011 10.6505 10.283 10.5493 10.331 10.4312C10.3789 10.3131 10.3907 10.1835 10.3649 10.0587C10.3391 9.93389 10.2769 9.81956 10.186 9.73019C10.0952 9.64082 9.97981 9.58044 9.85461 9.55669C9.7294 9.53294 9.59996 9.54689 9.48269 9.59679C9.36543 9.64668 9.26561 9.73026 9.1959 9.83694C9.12618 9.94363 9.08971 10.0686 9.0911 10.196C9.09387 10.3658 9.16327 10.5277 9.28433 10.6468C9.40539 10.7659 9.56841 10.8326 9.73822 10.8326Z" fill="url(#paint23_linear_6_1167)"/>
<path fill-rule="evenodd" clip-rule="evenodd" d="M11.0888 11.0787C11.2154 11.0773 11.3387 11.0384 11.4432 10.9669C11.5477 10.8954 11.6286 10.7946 11.6758 10.6771C11.7229 10.5596 11.7342 10.4308 11.7081 10.3069C11.682 10.183 11.6198 10.0696 11.5293 9.98112C11.4388 9.89259 11.3241 9.83288 11.1997 9.80955C11.0753 9.78622 10.9467 9.8003 10.8303 9.85003C10.7139 9.89975 10.6148 9.98288 10.5457 10.0889C10.4765 10.1949 10.4403 10.3191 10.4417 10.4457C10.4426 10.5297 10.4601 10.6128 10.4931 10.6901C10.5261 10.7674 10.574 10.8374 10.6341 10.8962C10.6942 10.955 10.7653 11.0014 10.8433 11.0327C10.9213 11.064 11.0047 11.0796 11.0888 11.0787Z" fill="url(#paint24_linear_6_1167)"/>
<path fill-rule="evenodd" clip-rule="evenodd" d="M12.3972 9.79858C12.2274 9.79858 12.0646 9.86602 11.9446 9.98606C11.8245 10.1061 11.7571 10.2689 11.7571 10.4387C11.7571 10.6084 11.8245 10.7712 11.9446 10.8913C12.0646 11.0113 12.2274 11.0788 12.3972 11.0788C12.5669 11.0788 12.7297 11.0113 12.8498 10.8913C12.9698 10.7712 13.0372 10.6084 13.0372 10.4387C13.0372 10.2689 12.9698 10.1061 12.8498 9.98606C12.7297 9.86602 12.5669 9.79858 12.3972 9.79858Z" fill="url(#paint25_linear_6_1167)"/>
<path fill-rule="evenodd" clip-rule="evenodd" d="M13.6948 9.79858C13.5688 9.79998 13.446 9.83852 13.3418 9.90938C13.2377 9.98025 13.1567 10.0803 13.1091 10.1969C13.0616 10.3136 13.0495 10.4417 13.0744 10.5652C13.0993 10.6887 13.1602 10.8021 13.2492 10.8912C13.3383 10.9803 13.4517 11.0411 13.5752 11.0661C13.6987 11.091 13.8269 11.0789 13.9435 11.0313C14.0602 10.9838 14.1602 10.9028 14.2311 10.7986C14.302 10.6945 14.3405 10.5717 14.3419 10.4457C14.3419 10.2741 14.2737 10.1095 14.1524 9.98812C14.031 9.86676 13.8664 9.79858 13.6948 9.79858Z" fill="url(#paint26_linear_6_1167)"/>
<path fill-rule="evenodd" clip-rule="evenodd" d="M14.989 11.0787C15.1155 11.0773 15.2389 11.0384 15.3433 10.9669C15.4478 10.8954 15.5287 10.7946 15.5759 10.6771C15.6231 10.5596 15.6343 10.4308 15.6083 10.3069C15.5822 10.183 15.52 10.0696 15.4295 9.98112C15.339 9.89259 15.2243 9.83288 15.0999 9.80955C14.9754 9.78622 14.8469 9.8003 14.7305 9.85003C14.614 9.89975 14.515 9.98288 14.4458 10.0889C14.3766 10.1949 14.3405 10.3191 14.3418 10.4457C14.3455 10.6148 14.4153 10.7758 14.5363 10.8942C14.6572 11.0125 14.8197 11.0788 14.989 11.0787Z" fill="url(#paint27_linear_6_1167)"/>
<path fill-rule="evenodd" clip-rule="evenodd" d="M9.09117 10.5408C9.08748 10.371 9.0172 10.2095 8.89548 10.091C8.77376 9.9726 8.61036 9.90676 8.44054 9.90773C8.27852 9.91973 8.12703 9.99256 8.01648 10.1116C7.90592 10.2307 7.84448 10.3871 7.84448 10.5496C7.84448 10.712 7.90592 10.8685 8.01648 10.9875C8.12703 11.1066 8.27852 11.1794 8.44054 11.1914C8.6131 11.1914 8.77859 11.1229 8.90061 11.0008C9.02262 10.8788 9.09117 10.7133 9.09117 10.5408Z" fill="url(#paint28_linear_6_1167)"/>
<path fill-rule="evenodd" clip-rule="evenodd" d="M6.36182 11.1844C6.4885 11.183 6.61195 11.1442 6.71671 11.073C6.82146 11.0017 6.90286 10.9012 6.9507 10.7838C6.99853 10.6665 7.01069 10.5377 6.98563 10.4135C6.96057 10.2893 6.89942 10.1753 6.80984 10.0857C6.72025 9.99614 6.60622 9.93499 6.48204 9.90993C6.35785 9.88487 6.22903 9.89703 6.11172 9.94486C5.99441 9.9927 5.89382 10.0741 5.82257 10.1789C5.75132 10.2836 5.71257 10.4071 5.71118 10.5337C5.71118 10.7063 5.77973 10.8718 5.90175 10.9938C6.02377 11.1158 6.18926 11.1844 6.36182 11.1844Z" fill="url(#paint29_linear_6_1167)"/>
<path fill-rule="evenodd" clip-rule="evenodd" d="M3.71362 10.5407C3.71362 10.6687 3.75158 10.7938 3.82268 10.9002C3.89379 11.0066 3.99485 11.0896 4.1131 11.1385C4.23134 11.1875 4.36146 11.2003 4.48699 11.1754C4.61252 11.1504 4.72782 11.0888 4.81832 10.9983C4.90882 10.9078 4.97045 10.7924 4.99542 10.6669C5.02039 10.5414 5.00758 10.4113 4.9586 10.293C4.90962 10.1748 4.82668 10.0737 4.72026 10.0026C4.61384 9.93151 4.48873 9.89355 4.36074 9.89355C4.18911 9.89355 4.02452 9.96173 3.90316 10.0831C3.7818 10.2044 3.71362 10.369 3.71362 10.5407Z" fill="url(#paint30_linear_6_1167)"/>
<path fill-rule="evenodd" clip-rule="evenodd" d="M5.9328 11.9334C5.93 11.8063 5.88963 11.6829 5.81676 11.5787C5.7439 11.4745 5.64182 11.3942 5.52339 11.348C5.40496 11.3018 5.27549 11.2917 5.15132 11.3189C5.02714 11.3462 4.91383 11.4096 4.82566 11.5012C4.7375 11.5928 4.67843 11.7085 4.65592 11.8336C4.63341 11.9587 4.64846 12.0877 4.69917 12.2043C4.74989 12.3209 4.83399 12.4198 4.94087 12.4886C5.04776 12.5575 5.17263 12.5931 5.29975 12.5911C5.38457 12.5897 5.46829 12.5716 5.54608 12.5377C5.62387 12.5039 5.69421 12.455 5.75304 12.3939C5.81188 12.3328 5.85804 12.2606 5.88889 12.1816C5.91974 12.1026 5.93466 12.0182 5.9328 11.9334Z" fill="url(#paint31_linear_6_1167)"/>
<path fill-rule="evenodd" clip-rule="evenodd" d="M2.84484 11.4095C2.68282 11.4215 2.53133 11.4943 2.42078 11.6134C2.31022 11.7324 2.24878 11.8889 2.24878 12.0513C2.24878 12.2138 2.31022 12.3702 2.42078 12.4893C2.53133 12.6083 2.68282 12.6812 2.84484 12.6932C2.93312 12.6997 3.0218 12.688 3.10534 12.6587C3.18888 12.6294 3.26547 12.5832 3.33034 12.5229C3.39521 12.4627 3.44695 12.3897 3.48233 12.3086C3.51772 12.2274 3.53598 12.1398 3.53598 12.0513C3.53598 11.9628 3.51772 11.8752 3.48233 11.7941C3.44695 11.7129 3.39521 11.64 3.33034 11.5797C3.26547 11.5195 3.18888 11.4733 3.10534 11.444C3.0218 11.4147 2.93312 11.4029 2.84484 11.4095Z" fill="url(#paint32_linear_6_1167)"/>
<path fill-rule="evenodd" clip-rule="evenodd" d="M1.01285 10.6638C0.88541 10.6645 0.76105 10.703 0.655528 10.7745C0.550007 10.846 0.468075 10.9471 0.420116 11.0652C0.372157 11.1833 0.36033 11.3129 0.386135 11.4377C0.41194 11.5625 0.474214 11.6769 0.565065 11.7662C0.655916 11.8556 0.771254 11.916 0.896461 11.9397C1.02167 11.9635 1.15111 11.9495 1.26838 11.8996C1.38564 11.8497 1.48546 11.7662 1.55517 11.6595C1.62488 11.5528 1.66136 11.4278 1.65997 11.3004C1.6572 11.1306 1.5878 10.9687 1.46674 10.8496C1.34568 10.7305 1.18266 10.6638 1.01285 10.6638Z" fill="url(#paint33_linear_6_1167)"/>
<path fill-rule="evenodd" clip-rule="evenodd" d="M7.28337 11.4936C7.15578 11.4901 7.03006 11.5249 6.92236 11.5934C6.81466 11.6618 6.72989 11.761 6.67894 11.878C6.62799 11.995 6.61319 12.1246 6.63644 12.2501C6.65969 12.3756 6.71993 12.4913 6.80942 12.5823C6.89891 12.6733 7.01356 12.7355 7.13865 12.7608C7.26374 12.7862 7.39356 12.7736 7.51142 12.7246C7.62928 12.6756 7.72981 12.5925 7.8001 12.486C7.87039 12.3794 7.90722 12.2543 7.90586 12.1267C7.90324 11.9614 7.83714 11.8035 7.72125 11.6857C7.60536 11.5678 7.44857 11.499 7.28337 11.4936Z" fill="url(#paint34_linear_6_1167)"/>
<path fill-rule="evenodd" clip-rule="evenodd" d="M8.66206 11.3145C8.4923 11.3145 8.32949 11.3819 8.20945 11.5019C8.08941 11.622 8.02197 11.7848 8.02197 11.9545C8.02197 12.1243 8.08941 12.2871 8.20945 12.4071C8.32949 12.5272 8.4923 12.5946 8.66206 12.5946C8.83182 12.5946 8.99462 12.5272 9.11466 12.4071C9.2347 12.2871 9.30214 12.1243 9.30214 11.9545C9.30214 11.7848 9.2347 11.622 9.11466 11.5019C8.99462 11.3819 8.83182 11.3145 8.66206 11.3145Z" fill="url(#paint35_linear_6_1167)"/>
<path fill-rule="evenodd" clip-rule="evenodd" d="M6.02784 13.0237C5.9008 13.023 5.77642 13.0601 5.67055 13.1304C5.56468 13.2006 5.4821 13.3007 5.43333 13.418C5.38455 13.5353 5.37179 13.6645 5.39667 13.7891C5.42154 13.9137 5.48293 14.028 5.57301 14.1176C5.66309 14.2072 5.77779 14.268 5.90252 14.2921C6.02724 14.3163 6.15633 14.3028 6.27337 14.2534C6.39041 14.204 6.49009 14.1209 6.55972 14.0146C6.62936 13.9084 6.6658 13.7838 6.66441 13.6567C6.66167 13.4891 6.59361 13.3291 6.47472 13.2109C6.35583 13.0927 6.1955 13.0255 6.02784 13.0237Z" fill="url(#paint36_linear_6_1167)"/>
<path fill-rule="evenodd" clip-rule="evenodd" d="M4.0443 13.5899C3.90593 13.5899 3.77317 13.6446 3.675 13.7421C3.57682 13.8396 3.5212 13.972 3.52028 14.1104C3.51932 14.2509 3.57378 14.3862 3.67186 14.4869C3.76994 14.5877 3.90375 14.6457 4.0443 14.6485C4.18617 14.6458 4.32147 14.5882 4.4218 14.4879C4.52213 14.3875 4.57969 14.2522 4.58239 14.1104C4.57871 13.9704 4.52029 13.8375 4.41967 13.7402C4.31906 13.6429 4.18428 13.5889 4.0443 13.5899Z" fill="url(#paint37_linear_6_1167)"/>
<path fill-rule="evenodd" clip-rule="evenodd" d="M10.2199 11.0225C10.0924 11.0232 9.96808 11.0617 9.86256 11.1331C9.75704 11.2046 9.67511 11.3058 9.62715 11.4238C9.57919 11.5419 9.56736 11.6716 9.59317 11.7964C9.61897 11.9212 9.68125 12.0355 9.7721 12.1249C9.86295 12.2142 9.97828 12.2746 10.1035 12.2984C10.2287 12.3221 10.3581 12.3082 10.4754 12.2583C10.5927 12.2084 10.6925 12.1248 10.7622 12.0181C10.8319 11.9114 10.8684 11.7865 10.867 11.659C10.8642 11.4892 10.7948 11.3273 10.6738 11.2083C10.5527 11.0892 10.3897 11.0224 10.2199 11.0225Z" fill="url(#paint38_linear_6_1167)"/>
<path fill-rule="evenodd" clip-rule="evenodd" d="M9.79101 12.3413C9.66217 12.3413 9.53624 12.3796 9.42917 12.4512C9.3221 12.5229 9.23871 12.6247 9.18957 12.7438C9.14043 12.8629 9.12775 12.9939 9.15314 13.1202C9.17853 13.2465 9.24085 13.3624 9.3322 13.4533C9.42354 13.5441 9.5398 13.6058 9.66624 13.6305C9.79268 13.6552 9.92362 13.6418 10.0424 13.592C10.1613 13.5423 10.2626 13.4583 10.3337 13.3509C10.4048 13.2434 10.4423 13.1173 10.4416 12.9884C10.4416 12.9032 10.4248 12.8187 10.392 12.74C10.3593 12.6612 10.3113 12.5897 10.2509 12.5296C10.1904 12.4695 10.1186 12.4219 10.0397 12.3896C9.96081 12.3572 9.87628 12.3409 9.79101 12.3413Z" fill="url(#paint39_linear_6_1167)"/>
<path fill-rule="evenodd" clip-rule="evenodd" d="M11.8097 12.292C11.9813 12.292 12.1459 12.2239 12.2673 12.1025C12.3887 11.9811 12.4568 11.8165 12.4568 11.6449C12.4568 11.4733 12.3887 11.3087 12.2673 11.1873C12.1459 11.066 11.9813 10.9978 11.8097 10.9978C11.6381 10.9978 11.4735 11.066 11.3521 11.1873C11.2308 11.3087 11.1626 11.4733 11.1626 11.6449C11.1626 11.8165 11.2308 11.9811 11.3521 12.1025C11.4735 12.2239 11.6381 12.292 11.8097 12.292Z" fill="url(#paint40_linear_6_1167)"/>
<path fill-rule="evenodd" clip-rule="evenodd" d="M12.8013 11.754C12.7948 11.8423 12.8065 11.931 12.8358 12.0145C12.8651 12.0981 12.9113 12.1747 12.9716 12.2395C13.0318 12.3044 13.1048 12.3561 13.1859 12.3915C13.2671 12.4269 13.3546 12.4452 13.4432 12.4452C13.5317 12.4452 13.6193 12.4269 13.7004 12.3915C13.7816 12.3561 13.8545 12.3044 13.9148 12.2395C13.975 12.1747 14.0212 12.0981 14.0505 12.0145C14.0798 11.931 14.0915 11.8423 14.085 11.754C14.073 11.592 14.0002 11.4405 13.8811 11.33C13.7621 11.2194 13.6056 11.158 13.4432 11.158C13.2807 11.158 13.1242 11.2194 13.0052 11.33C12.8862 11.4405 12.8133 11.592 12.8013 11.754Z" fill="url(#paint41_linear_6_1167)"/>
<path fill-rule="evenodd" clip-rule="evenodd" d="M14.1204 11.7541C14.1211 11.8809 14.1592 12.0047 14.2301 12.1099C14.3009 12.2151 14.4012 12.2971 14.5185 12.3455C14.6357 12.3938 14.7647 12.4065 14.8891 12.3818C15.0135 12.3572 15.1279 12.2963 15.2178 12.2068C15.3077 12.1174 15.3692 12.0034 15.3946 11.8791C15.4199 11.7548 15.408 11.6258 15.3602 11.5083C15.3125 11.3908 15.2311 11.29 15.1263 11.2186C15.0214 11.1472 14.8978 11.1083 14.771 11.1069C14.6857 11.1065 14.6012 11.1229 14.5223 11.1552C14.4434 11.1875 14.3716 11.2351 14.3111 11.2952C14.2507 11.3554 14.2027 11.4269 14.17 11.5056C14.1372 11.5843 14.1204 11.6688 14.1204 11.7541Z" fill="url(#paint42_linear_6_1167)"/>
<path fill-rule="evenodd" clip-rule="evenodd" d="M15.4182 11.7541C15.4196 11.88 15.4582 12.0028 15.529 12.107C15.5999 12.2112 15.6999 12.2921 15.8166 12.3397C15.9333 12.3873 16.0614 12.3993 16.1849 12.3744C16.3084 12.3495 16.4218 12.2887 16.5109 12.1996C16.6 12.1105 16.6608 11.9971 16.6857 11.8736C16.7106 11.7501 16.6985 11.622 16.651 11.5053C16.6034 11.3886 16.5225 11.2886 16.4183 11.2177C16.3141 11.1469 16.1913 11.1083 16.0653 11.1069C15.9802 11.1065 15.8959 11.1229 15.8171 11.1553C15.7384 11.1876 15.6669 11.2353 15.6067 11.2954C15.5465 11.3556 15.4989 11.4271 15.4665 11.5059C15.4342 11.5846 15.4178 11.669 15.4182 11.7541Z" fill="url(#paint43_linear_6_1167)"/>
<path fill-rule="evenodd" clip-rule="evenodd" d="M12.826 12.292C12.664 12.304 12.5125 12.3769 12.402 12.4959C12.2914 12.615 12.23 12.7714 12.23 12.9339C12.23 13.0963 12.2914 13.2528 12.402 13.3718C12.5125 13.4909 12.664 13.5637 12.826 13.5757C12.9143 13.5823 13.003 13.5705 13.0865 13.5412C13.1701 13.5119 13.2467 13.4657 13.3115 13.4055C13.3764 13.3452 13.4282 13.2723 13.4635 13.1911C13.4989 13.11 13.5172 13.0224 13.5172 12.9339C13.5172 12.8454 13.4989 12.7578 13.4635 12.6766C13.4282 12.5955 13.3764 12.5225 13.3115 12.4623C13.2467 12.402 13.1701 12.3558 13.0865 12.3265C13.003 12.2972 12.9143 12.2855 12.826 12.292Z" fill="url(#paint44_linear_6_1167)"/>
<path fill-rule="evenodd" clip-rule="evenodd" d="M11.3383 12.3694C11.2117 12.3708 11.0884 12.4097 10.9839 12.4812C10.8795 12.5527 10.7985 12.6535 10.7514 12.771C10.7042 12.8885 10.693 13.0173 10.719 13.1412C10.7451 13.2651 10.8073 13.3785 10.8978 13.467C10.9883 13.5555 11.103 13.6152 11.2274 13.6386C11.3519 13.6619 11.4804 13.6478 11.5968 13.5981C11.7132 13.5484 11.8123 13.4652 11.8815 13.3592C11.9507 13.2532 11.9868 13.129 11.9855 13.0024C11.9827 12.833 11.9132 12.6714 11.792 12.5529C11.6708 12.4344 11.5078 12.3684 11.3383 12.3694Z" fill="url(#paint45_linear_6_1167)"/>
<path fill-rule="evenodd" clip-rule="evenodd" d="M14.1484 12.2923C14.0211 12.2909 13.8963 12.3273 13.7897 12.3968C13.6831 12.4664 13.5995 12.566 13.5495 12.6831C13.4995 12.8001 13.4854 12.9294 13.5088 13.0545C13.5323 13.1796 13.5923 13.2949 13.6814 13.3859C13.7704 13.4769 13.8844 13.5395 14.0089 13.5657C14.1335 13.5919 14.263 13.5805 14.3812 13.5331C14.4993 13.4857 14.6007 13.4043 14.6726 13.2993C14.7445 13.1942 14.7836 13.0702 14.785 12.9429C14.7859 12.8584 14.7702 12.7745 14.7387 12.6961C14.7072 12.6176 14.6606 12.5462 14.6014 12.4857C14.5423 12.4253 14.4719 12.3771 14.3942 12.3439C14.3164 12.3108 14.2329 12.2932 14.1484 12.2923Z" fill="url(#paint46_linear_6_1167)"/>
<path fill-rule="evenodd" clip-rule="evenodd" d="M15.4463 12.2921C15.3181 12.29 15.1923 12.3262 15.0848 12.3961C14.9774 12.466 14.8933 12.5664 14.8433 12.6845C14.7932 12.8025 14.7796 12.9328 14.8041 13.0586C14.8286 13.1844 14.8901 13.3 14.9807 13.3907C15.0714 13.4813 15.187 13.5428 15.3128 13.5673C15.4387 13.5918 15.5689 13.5782 15.687 13.5282C15.805 13.4782 15.9054 13.394 15.9753 13.2866C16.0452 13.1792 16.0814 13.0533 16.0794 12.9251C16.0766 12.7581 16.0091 12.5986 15.8909 12.4805C15.7728 12.3624 15.6133 12.2948 15.4463 12.2921Z" fill="url(#paint47_linear_6_1167)"/>
<path fill-rule="evenodd" clip-rule="evenodd" d="M16.7403 12.2921C16.6129 12.29 16.4877 12.3258 16.3806 12.3949C16.2736 12.4641 16.1895 12.5634 16.1389 12.6804C16.0884 12.7974 16.0737 12.9267 16.0968 13.0521C16.1199 13.1774 16.1796 13.2931 16.2685 13.3844C16.3574 13.4757 16.4713 13.5386 16.596 13.5651C16.7207 13.5916 16.8504 13.5805 16.9687 13.5332C17.087 13.4859 17.1887 13.4045 17.2607 13.2994C17.3327 13.1943 17.3719 13.0701 17.3733 12.9427C17.3752 12.7726 17.3097 12.6087 17.1911 12.4868C17.0724 12.3649 16.9104 12.2949 16.7403 12.2921Z" fill="url(#paint48_linear_6_1167)"/>
<path fill-rule="evenodd" clip-rule="evenodd" d="M0.460519 13.2171C0.402097 13.2117 0.343201 13.2186 0.28759 13.2373C0.23198 13.256 0.180877 13.2861 0.137543 13.3256C0.0942089 13.3652 0.0595964 13.4133 0.0359141 13.467C0.0122319 13.5207 0 13.5787 0 13.6374C0 13.696 0.0122319 13.7541 0.0359141 13.8077C0.0595964 13.8614 0.0942089 13.9096 0.137543 13.9491C0.180877 13.9886 0.23198 14.0187 0.28759 14.0374C0.343201 14.0561 0.402097 14.063 0.460519 14.0576C0.565348 14.048 0.662805 13.9996 0.733766 13.9219C0.804726 13.8441 0.844066 13.7426 0.844066 13.6374C0.844066 13.5321 0.804726 13.4306 0.733766 13.3529C0.662805 13.2751 0.565348 13.2267 0.460519 13.2171Z" fill="url(#paint49_linear_6_1167)"/>
<path opacity="0.62" d="M0.871846 13.6462C0.873246 13.7015 0.863688 13.7564 0.843723 13.808C0.823758 13.8595 0.793782 13.9066 0.755524 13.9465C0.717267 13.9864 0.671487 14.0183 0.620826 14.0404C0.570166 14.0625 0.515628 14.0744 0.460363 14.0753C0.348433 14.0753 0.241088 14.0308 0.161941 13.9517C0.0827945 13.8725 0.0383301 13.7652 0.0383301 13.6532C0.0383301 13.5413 0.0827945 13.434 0.161941 13.3548C0.241088 13.2757 0.348433 13.2312 0.460363 13.2312C0.569531 13.233 0.673661 13.2775 0.750536 13.355C0.827411 13.4325 0.870943 13.537 0.871846 13.6462Z" fill="url(#paint50_linear_6_1167)"/>
<path opacity="0.62" d="M9.69608 1.09779C9.69507 1.22049 9.6645 1.34113 9.60695 1.44949C9.5494 1.55786 9.46657 1.65075 9.36548 1.72029C9.32611 1.7379 9.28844 1.75909 9.25294 1.7836C9.15427 1.83153 9.04611 1.85676 8.93642 1.85745C8.73494 1.85745 8.54172 1.77742 8.39926 1.63495C8.25679 1.49249 8.17676 1.29927 8.17676 1.09779C8.17676 0.89632 8.25679 0.703097 8.39926 0.560634C8.54172 0.41817 8.73494 0.338135 8.93642 0.338135C9.13732 0.33997 9.32948 0.420594 9.47155 0.562662C9.61362 0.70473 9.69424 0.896888 9.69608 1.09779Z" fill="url(#paint51_linear_6_1167)"/>
<path opacity="0.62" d="M8.15214 3.71796C8.15037 3.91614 8.07157 4.10585 7.93242 4.24697C7.79327 4.38809 7.60468 4.46954 7.40655 4.4741C7.28387 4.47417 7.16307 4.44397 7.05485 4.38618L7.00562 4.35804C6.8922 4.28966 6.79873 4.19269 6.73456 4.07683C6.6704 3.96097 6.63779 3.83029 6.64 3.69787C6.64221 3.56545 6.67916 3.43593 6.74716 3.32228C6.81515 3.20863 6.91181 3.11483 7.02744 3.05027C7.14308 2.98571 7.27365 2.95265 7.40608 2.95441C7.53851 2.95617 7.66815 2.99268 7.78203 3.06029C7.89592 3.1279 7.99005 3.22424 8.055 3.33965C8.11995 3.45507 8.15345 3.58553 8.15214 3.71796Z" fill="url(#paint52_linear_6_1167)"/>
<path opacity="0.62" d="M8.90824 2.39189C8.90732 2.59247 8.82747 2.78463 8.68596 2.92679C8.54446 3.06896 8.35267 3.1497 8.15209 3.15155C7.96001 3.13845 7.78006 3.05291 7.64863 2.91222C7.5172 2.77153 7.44409 2.58617 7.44409 2.39364C7.44409 2.20111 7.5172 2.01576 7.64863 1.87507C7.78006 1.73438 7.96001 1.64883 8.15209 1.63574C8.35207 1.63758 8.54333 1.71783 8.68474 1.85924C8.82615 2.00065 8.9064 2.19191 8.90824 2.39189Z" fill="url(#paint53_linear_6_1167)"/>
<path opacity="0.62" d="M10.4382 2.39189C10.4387 2.49149 10.4195 2.59019 10.3817 2.68234C10.3439 2.77448 10.2883 2.85826 10.218 2.92884C10.1477 2.99943 10.0642 3.05544 9.97227 3.09366C9.8803 3.13188 9.78168 3.15156 9.68209 3.15155C9.55987 3.15133 9.4394 3.12242 9.33039 3.06715L9.27412 3.03198C9.16752 2.96574 9.07918 2.8739 9.01713 2.76481C8.95508 2.65573 8.92129 2.53285 8.91884 2.40737C8.9164 2.2819 8.94537 2.1578 9.00312 2.04637C9.06087 1.93495 9.14557 1.83974 9.2495 1.7694C9.28888 1.75179 9.32655 1.7306 9.36205 1.70609C9.46096 1.65926 9.56913 1.63522 9.67857 1.63575C9.77816 1.63529 9.87687 1.6545 9.96901 1.6923C10.0612 1.73009 10.1449 1.78571 10.2155 1.85597C10.2861 1.92623 10.3421 2.00975 10.3803 2.10171C10.4186 2.19368 10.4382 2.2923 10.4382 2.39189Z" fill="url(#paint54_linear_6_1167)"/>
<path opacity="0.62" d="M10.4522 4.474C10.345 4.47444 10.2391 4.45038 10.1427 4.40367C10.2442 4.47347 10.3273 4.56694 10.3847 4.676C10.442 4.78507 10.472 4.90645 10.472 5.02968C10.472 5.15291 10.442 5.2743 10.3847 5.38336C10.3273 5.49242 10.2442 5.58589 10.1427 5.6557C10.1103 5.66983 10.0797 5.68752 10.0512 5.70845C9.94754 5.76043 9.83314 5.7875 9.71713 5.7875C9.60113 5.7875 9.48673 5.76043 9.38302 5.70845C9.35763 5.69058 9.33054 5.67527 9.30213 5.66273C9.19523 5.59506 9.10702 5.50165 9.04557 5.39105C8.98413 5.28045 8.95142 5.1562 8.95044 5.02968C8.95032 4.90243 8.98231 4.77721 9.04345 4.66562C9.1046 4.55402 9.19291 4.45966 9.30022 4.39128C9.40753 4.3229 9.53037 4.2827 9.65734 4.27441C9.78432 4.26613 9.91134 4.29002 10.0266 4.34388C9.9249 4.27498 9.84158 4.18223 9.78395 4.07372C9.72633 3.96521 9.69614 3.84424 9.69603 3.72138C9.69695 3.52079 9.7768 3.32863 9.9183 3.18647C10.0598 3.0443 10.2516 2.96357 10.4522 2.96172C10.556 2.95464 10.6603 2.96898 10.7584 3.00387C10.8565 3.03875 10.9463 3.09342 11.0224 3.1645C11.0985 3.23557 11.1591 3.32152 11.2006 3.41701C11.2421 3.51251 11.2635 3.61551 11.2635 3.71962C11.2635 3.82373 11.2421 3.92673 11.2006 4.02223C11.1591 4.11772 11.0985 4.20367 11.0224 4.27474C10.9463 4.34582 10.8565 4.40049 10.7584 4.43537C10.6603 4.47025 10.556 4.4846 10.4522 4.47752V4.474Z" fill="url(#paint55_linear_6_1167)"/>
<path opacity="0.62" d="M9.98792 6.98172C9.66084 7.23142 9.32322 7.48464 8.97152 7.73786C8.96978 7.71679 8.96978 7.69562 8.97152 7.67455C8.97106 7.57651 8.99002 7.47935 9.02733 7.38868C9.06463 7.29801 9.11954 7.21563 9.18886 7.1463C9.25819 7.07698 9.34057 7.02207 9.43124 6.98477C9.52191 6.94746 9.61907 6.9285 9.71712 6.92896C9.80998 6.9285 9.90202 6.94643 9.98792 6.98172Z" fill="url(#paint56_linear_6_1167)"/>
<path opacity="0.62" d="M11.9996 5.02615C12.0003 5.16487 11.9599 5.3007 11.8836 5.41653C11.7218 5.56072 11.553 5.70492 11.3806 5.84912C11.4172 5.80493 11.4585 5.76484 11.5037 5.72954C11.4198 5.7632 11.3304 5.78108 11.24 5.78229C11.1401 5.78276 11.0411 5.76343 10.9487 5.72542C10.8563 5.6874 10.7724 5.63146 10.7018 5.56083C10.6311 5.4902 10.5752 5.40627 10.5372 5.31389C10.4992 5.22152 10.4798 5.12252 10.4803 5.02263C10.4789 4.92264 10.4976 4.82338 10.5353 4.73077C10.573 4.63815 10.629 4.55406 10.6998 4.48351C10.7707 4.41296 10.855 4.3574 10.9478 4.32011C11.0406 4.28283 11.14 4.26459 11.24 4.26649C11.3399 4.26603 11.4388 4.28536 11.5312 4.32337C11.6236 4.36138 11.7075 4.41732 11.7782 4.48795C11.8488 4.55858 11.9047 4.64252 11.9427 4.73489C11.9808 4.82727 12.0001 4.92626 11.9996 5.02615Z" fill="url(#paint57_linear_6_1167)"/>
<path opacity="0.62" d="M11.1486 6.04969C10.7969 6.3416 10.4452 6.63702 10.0373 6.93948C9.93718 6.87086 9.85516 6.77906 9.79821 6.67189C9.74125 6.56472 9.71106 6.44537 9.71021 6.32402C9.71016 6.20249 9.73996 6.08281 9.79699 5.9755C9.85402 5.86818 9.93653 5.77651 10.0373 5.70855C10.0696 5.69442 10.1003 5.67673 10.1287 5.6558C10.2278 5.60505 10.3375 5.57853 10.4488 5.57842C10.5995 5.5766 10.7472 5.62073 10.8722 5.70491C10.9972 5.7891 11.0936 5.90936 11.1486 6.04969Z" fill="url(#paint58_linear_6_1167)"/>
<path opacity="0.62" d="M9.69592 6.32377C9.69593 6.42151 9.67662 6.5183 9.6391 6.60856C9.60159 6.69882 9.54662 6.78079 9.47733 6.84974C9.40805 6.9187 9.32583 6.97328 9.23539 7.01037C9.14495 7.04745 9.04808 7.06631 8.95033 7.06584C8.84835 7.07286 8.74601 7.05883 8.64968 7.02463C8.55335 6.99042 8.46508 6.93677 8.39036 6.86702C8.31564 6.79726 8.25606 6.71288 8.21532 6.61912C8.17458 6.52537 8.15356 6.42423 8.15356 6.32201C8.15356 6.21979 8.17458 6.11865 8.21532 6.02489C8.25606 5.93114 8.31564 5.84676 8.39036 5.777C8.46508 5.70725 8.55335 5.6536 8.64968 5.61939C8.74601 5.58519 8.84835 5.57116 8.95033 5.57817C9.07246 5.57549 9.19334 5.6033 9.30203 5.65907C9.32777 5.67637 9.35481 5.69165 9.38292 5.70478C9.48156 5.77466 9.56164 5.86758 9.61619 5.97545C9.67074 6.08333 9.69811 6.2029 9.69592 6.32377Z" fill="url(#paint59_linear_6_1167)"/>
<path opacity="0.62" d="M8.93273 4.47405C8.82555 4.47449 8.7197 4.45043 8.62324 4.40372C8.76806 4.51235 8.86933 4.66914 8.90879 4.84583C8.94825 5.02251 8.92331 5.20749 8.83847 5.36742C8.75363 5.52735 8.61446 5.65172 8.44603 5.71812C8.27761 5.78452 8.09101 5.7886 7.91985 5.7296C8.05732 5.83512 8.15287 5.98601 8.18947 6.1554C8.22607 6.32479 8.20134 6.50167 8.1197 6.65453C8.03806 6.80739 7.9048 6.9263 7.74367 6.99008C7.58253 7.05386 7.40399 7.05836 7.23985 7.00278C7.0757 6.9472 6.93662 6.83516 6.84738 6.68661C6.75813 6.53806 6.72453 6.36265 6.75254 6.19163C6.78056 6.02061 6.86838 5.8651 7.00036 5.75279C7.13234 5.64048 7.2999 5.57867 7.4732 5.57837C7.56707 5.57925 7.66002 5.59712 7.74752 5.63113C7.65361 5.56069 7.57739 5.46936 7.52489 5.36437C7.47239 5.25938 7.44506 5.1436 7.44506 5.02621C7.44494 4.89897 7.47693 4.77375 7.53808 4.66215C7.59922 4.55056 7.68754 4.4562 7.79485 4.38781C7.90216 4.31943 8.02499 4.27923 8.15197 4.27094C8.27894 4.26266 8.40596 4.28655 8.52125 4.34041C8.41952 4.27152 8.3362 4.17876 8.27858 4.07025C8.22095 3.96174 8.19076 3.84077 8.19065 3.71791C8.19149 3.51972 8.2694 3.32962 8.4079 3.18784C8.54639 3.04607 8.73461 2.96373 8.93273 2.95825C9.05539 2.95832 9.17616 2.98852 9.28442 3.04618L9.34069 3.08134C9.48548 3.16683 9.59764 3.29813 9.65945 3.4545C9.72126 3.61086 9.72919 3.78337 9.68198 3.94474C9.63478 4.10612 9.53514 4.24715 9.39881 4.34556C9.26248 4.44397 9.09724 4.49413 8.92921 4.48812L8.93273 4.47405Z" fill="url(#paint60_linear_6_1167)"/>
<path opacity="0.62" d="M6.65019 5.78585C6.57104 5.78443 6.49265 5.77018 6.41807 5.74364C6.50645 5.81244 6.57802 5.90043 6.62737 6.00097C6.67672 6.1015 6.70257 6.21194 6.70295 6.32394C6.7011 6.52079 6.62184 6.70899 6.48232 6.84786C6.34279 6.98673 6.15421 7.0651 5.95735 7.06601C5.76892 7.05305 5.59242 6.96905 5.46353 6.83098C5.33463 6.69291 5.26294 6.51107 5.26294 6.32218C5.26294 6.1333 5.33463 5.95145 5.46353 5.81338C5.59242 5.67531 5.76892 5.59131 5.95735 5.57835C6.03404 5.5783 6.11017 5.59138 6.18244 5.61703C6.05813 5.52048 5.96723 5.38739 5.92251 5.23648C5.87779 5.08557 5.88151 4.92444 5.93314 4.77575C5.98477 4.62707 6.08172 4.49831 6.21035 4.4076C6.33897 4.31688 6.4928 4.26877 6.65019 4.27004C6.77275 4.27095 6.89332 4.3011 7.00189 4.35797L7.05112 4.3861C7.15903 4.45441 7.24787 4.54894 7.30937 4.66087C7.37087 4.7728 7.40302 4.89848 7.40282 5.02619C7.40192 5.22617 7.32255 5.41781 7.1818 5.55988C7.04105 5.70194 6.85016 5.78308 6.65019 5.78585Z" fill="url(#paint61_linear_6_1167)"/>
<path opacity="0.62" d="M7.44864 7.66748C7.44957 7.7643 7.43136 7.86035 7.39506 7.95011C7.35875 8.03988 7.30507 8.12158 7.2371 8.19054C7.16912 8.25949 7.08819 8.31434 6.99896 8.35192C6.90972 8.38951 6.81394 8.40909 6.71712 8.40955C6.52868 8.39659 6.35219 8.31258 6.22329 8.17452C6.09439 8.03645 6.02271 7.8546 6.02271 7.66572C6.02271 7.47684 6.09439 7.29499 6.22329 7.15692C6.35219 7.01885 6.52868 6.93485 6.71712 6.92188C6.81452 6.92139 6.91102 6.94044 7.00092 6.97791C7.09083 7.01538 7.1723 7.07051 7.24051 7.14003C7.30872 7.20955 7.36229 7.29206 7.39804 7.38266C7.43379 7.47326 7.451 7.57011 7.44864 7.66748Z" fill="url(#paint62_linear_6_1167)"/>
<path opacity="0.62" d="M8.95045 7.66741C8.95213 7.69435 8.95213 7.72137 8.95045 7.74831L8.22948 8.26881L8.0466 8.39542C7.88791 8.35638 7.74634 8.2665 7.64347 8.13951C7.54061 8.01252 7.4821 7.85537 7.47686 7.69203C7.46984 7.59005 7.48387 7.48771 7.51807 7.39138C7.55228 7.29505 7.60592 7.20678 7.67568 7.13206C7.74544 7.05734 7.82982 6.99776 7.92358 6.95702C8.01733 6.91629 8.11846 6.89526 8.22069 6.89526C8.32291 6.89526 8.42405 6.91629 8.5178 6.95702C8.61156 6.99776 8.69594 7.05734 8.7657 7.13206C8.83545 7.20678 8.8891 7.29505 8.92331 7.39138C8.95751 7.48771 8.97154 7.59005 8.96452 7.69203L8.95045 7.66741Z" fill="url(#paint63_linear_6_1167)"/>
<path opacity="0.62" d="M7.56815 8.72239C7.26569 8.93341 6.9773 9.13739 6.69946 9.33786C6.72768 9.16669 6.81553 9.01101 6.94748 8.89838C7.07942 8.78574 7.24696 8.7234 7.42044 8.72239C7.46954 8.71721 7.51905 8.71721 7.56815 8.72239Z" fill="url(#paint64_linear_6_1167)"/>
<path opacity="0.62" d="M6.6362 9.09525C6.63628 9.21793 6.60608 9.33873 6.54828 9.44695C6.36892 9.57707 6.19659 9.70017 6.02426 9.82678C5.97978 9.83026 5.93509 9.83026 5.89061 9.82678C5.69376 9.82586 5.50518 9.74749 5.36565 9.60863C5.22612 9.46976 5.14687 9.28155 5.14502 9.0847C5.14863 8.88809 5.22834 8.70053 5.36739 8.56148C5.50644 8.42243 5.694 8.34272 5.89061 8.33911C5.98928 8.33957 6.08689 8.35952 6.17783 8.39781C6.26877 8.4361 6.35126 8.49198 6.42054 8.56224C6.48982 8.63251 6.54453 8.71576 6.58155 8.80723C6.61856 8.8987 6.63713 8.99658 6.6362 9.09525Z" fill="url(#paint65_linear_6_1167)"/>
<path opacity="0.62" d="M5.76755 7.66747C5.76755 7.81493 5.72382 7.95908 5.6419 8.0817C5.55997 8.20431 5.44352 8.29987 5.30728 8.3563C5.17105 8.41274 5.02113 8.4275 4.8765 8.39873C4.73187 8.36996 4.59902 8.29895 4.49475 8.19468C4.39047 8.09041 4.31946 7.95756 4.29069 7.81292C4.26193 7.66829 4.27669 7.51838 4.33312 7.38214C4.38955 7.2459 4.48512 7.12946 4.60773 7.04753C4.73034 6.9656 4.87449 6.92188 5.02196 6.92188C5.21942 6.9228 5.40852 7.00165 5.54815 7.14128C5.68778 7.2809 5.76663 7.47001 5.76755 7.66747Z" fill="url(#paint66_linear_6_1167)"/>
<path opacity="0.62" d="M4.27648 8.98255C4.27695 9.0803 4.2581 9.17718 4.22101 9.26762C4.18392 9.35805 4.12934 9.44027 4.06038 9.50956C3.99143 9.57884 3.90947 9.63381 3.8192 9.67132C3.72894 9.70884 3.63216 9.72815 3.53441 9.72815C3.33695 9.72722 3.14784 9.64837 3.00822 9.50874C2.86859 9.36912 2.78974 9.18001 2.78882 8.98255C2.79332 8.78655 2.87343 8.59988 3.01239 8.46158C3.15134 8.32328 3.33839 8.24406 3.53441 8.24048C3.73065 8.24231 3.91834 8.32108 4.05711 8.45986C4.19588 8.59863 4.27465 8.78631 4.27648 8.98255Z" fill="url(#paint67_linear_6_1167)"/>
<path opacity="0.62" d="M5.00794 10.5408V10.583C4.74065 10.7834 4.48743 10.9769 4.2518 11.1668C4.13204 11.1447 4.02107 11.0889 3.9319 11.006C3.84274 10.923 3.77909 10.8164 3.74842 10.6985C3.71775 10.5807 3.72133 10.4565 3.75875 10.3406C3.79617 10.2247 3.86587 10.1219 3.95968 10.0443C4.05348 9.9666 4.16749 9.91731 4.28832 9.90218C4.40915 9.88705 4.5318 9.90669 4.64185 9.95882C4.75191 10.0109 4.84481 10.0934 4.90966 10.1965C4.9745 10.2995 5.0086 10.419 5.00794 10.5408Z" fill="url(#paint68_linear_6_1167)"/>
<path opacity="0.62" d="M1.65972 11.3004C1.6611 11.4277 1.62471 11.5525 1.55515 11.6591C1.48559 11.7657 1.38598 11.8493 1.26892 11.8993C1.15186 11.9493 1.0226 11.9634 0.897496 11.94C0.772389 11.9165 0.657051 11.8564 0.566066 11.7674C0.475081 11.6784 0.412535 11.5644 0.386337 11.4399C0.36014 11.3153 0.371467 11.1858 0.418887 11.0676C0.466306 10.9495 0.547689 10.8481 0.652744 10.7762C0.757798 10.7043 0.881806 10.6652 1.00909 10.6638C1.17951 10.6629 1.34343 10.7292 1.46524 10.8484C1.58706 10.9676 1.65695 11.13 1.65972 11.3004Z" fill="url(#paint69_linear_6_1167)"/>
<path opacity="0.62" d="M3.44636 11.8174C3.11811 12.0987 2.81214 12.3625 2.52844 12.6087C2.40695 12.5377 2.31206 12.4289 2.2583 12.2989C2.20454 12.1688 2.19488 12.0248 2.23078 11.8887C2.26669 11.7527 2.34619 11.6322 2.45711 11.5456C2.56803 11.459 2.70427 11.4112 2.84496 11.4094C2.97431 11.4103 3.10048 11.4496 3.20752 11.5222C3.31457 11.5948 3.39768 11.6975 3.44636 11.8174Z" fill="url(#paint70_linear_6_1167)"/>
<defs>
<linearGradient id="paint0_linear_6_1167" x1="8.63743" y1="0.675712" x2="15.6713" y2="10.6744" gradientUnits="userSpaceOnUse">
<stop stop-color="#8EC752"/>
<stop offset="0.18" stop-color="#83BE4F"/>
<stop offset="1" stop-color="#539943"/>
</linearGradient>
<linearGradient id="paint1_linear_6_1167" x1="7.50146" y1="1.4741" x2="14.5318" y2="11.4728" gradientUnits="userSpaceOnUse">
<stop stop-color="#8EC752"/>
<stop offset="0.18" stop-color="#83BE4F"/>
<stop offset="1" stop-color="#539943"/>
</linearGradient>
<linearGradient id="paint2_linear_6_1167" x1="8.52138" y1="0.756649" x2="15.5553" y2="10.7553" gradientUnits="userSpaceOnUse">
<stop stop-color="#8EC752"/>
<stop offset="0.18" stop-color="#83BE4F"/>
<stop offset="1" stop-color="#539943"/>
</linearGradient>
<linearGradient id="paint3_linear_6_1167" x1="6.37959" y1="2.26551" x2="13.4099" y2="12.2607" gradientUnits="userSpaceOnUse">
<stop stop-color="#8EC752"/>
<stop offset="0.18" stop-color="#83BE4F"/>
<stop offset="1" stop-color="#539943"/>
</linearGradient>
<linearGradient id="paint4_linear_6_1167" x1="7.86378" y1="1.22088" x2="14.8977" y2="11.216" gradientUnits="userSpaceOnUse">
<stop stop-color="#8EC752"/>
<stop offset="0.18" stop-color="#83BE4F"/>
<stop offset="1" stop-color="#539943"/>
</linearGradient>
<linearGradient id="paint5_linear_6_1167" x1="8.27156" y1="0.932516" x2="15.3019" y2="10.9312" gradientUnits="userSpaceOnUse">
<stop stop-color="#8EC752"/>
<stop offset="0.18" stop-color="#83BE4F"/>
<stop offset="1" stop-color="#539943"/>
</linearGradient>
<linearGradient id="paint6_linear_6_1167" x1="4.73015" y1="3.42244" x2="11.7605" y2="13.4211" gradientUnits="userSpaceOnUse">
<stop stop-color="#8EC752"/>
<stop offset="0.18" stop-color="#83BE4F"/>
<stop offset="1" stop-color="#539943"/>
</linearGradient>
<linearGradient id="paint7_linear_6_1167" x1="6.30208" y1="2.31818" x2="13.3324" y2="12.3169" gradientUnits="userSpaceOnUse">
<stop stop-color="#8EC752"/>
<stop offset="0.18" stop-color="#83BE4F"/>
<stop offset="1" stop-color="#539943"/>
</linearGradient>
<linearGradient id="paint8_linear_6_1167" x1="6.19323" y1="2.39534" x2="13.2236" y2="12.394" gradientUnits="userSpaceOnUse">
<stop stop-color="#8EC752"/>
<stop offset="0.18" stop-color="#83BE4F"/>
<stop offset="1" stop-color="#539943"/>
</linearGradient>
<linearGradient id="paint9_linear_6_1167" x1="7.1955" y1="1.68843" x2="14.2294" y2="11.6871" gradientUnits="userSpaceOnUse">
<stop stop-color="#8EC752"/>
<stop offset="0.18" stop-color="#83BE4F"/>
<stop offset="1" stop-color="#539943"/>
</linearGradient>
<linearGradient id="paint10_linear_6_1167" x1="2.91878" y1="4.69907" x2="9.94915" y2="14.6942" gradientUnits="userSpaceOnUse">
<stop stop-color="#8EC752"/>
<stop offset="0.18" stop-color="#83BE4F"/>
<stop offset="1" stop-color="#539943"/>
</linearGradient>
<linearGradient id="paint11_linear_6_1167" x1="4.05837" y1="3.89736" x2="11.0887" y2="13.8925" gradientUnits="userSpaceOnUse">
<stop stop-color="#8EC752"/>
<stop offset="0.18" stop-color="#83BE4F"/>
<stop offset="1" stop-color="#539943"/>
</linearGradient>
<linearGradient id="paint12_linear_6_1167" x1="5.05711" y1="3.19382" x2="12.091" y2="13.1925" gradientUnits="userSpaceOnUse">
<stop stop-color="#8EC752"/>
<stop offset="0.18" stop-color="#83BE4F"/>
<stop offset="1" stop-color="#539943"/>
</linearGradient>
<linearGradient id="paint13_linear_6_1167" x1="6.06312" y1="2.48701" x2="13.0935" y2="12.4822" gradientUnits="userSpaceOnUse">
<stop stop-color="#8EC752"/>
<stop offset="0.18" stop-color="#83BE4F"/>
<stop offset="1" stop-color="#539943"/>
</linearGradient>
<linearGradient id="paint14_linear_6_1167" x1="7.06889" y1="1.78016" x2="14.0993" y2="11.7753" gradientUnits="userSpaceOnUse">
<stop stop-color="#8EC752"/>
<stop offset="0.18" stop-color="#83BE4F"/>
<stop offset="1" stop-color="#539943"/>
</linearGradient>
<linearGradient id="paint15_linear_6_1167" x1="8.07466" y1="1.06968" x2="15.105" y2="11.0683" gradientUnits="userSpaceOnUse">
<stop stop-color="#8EC752"/>
<stop offset="0.18" stop-color="#83BE4F"/>
<stop offset="1" stop-color="#539943"/>
</linearGradient>
<linearGradient id="paint16_linear_6_1167" x1="1.31522" y1="5.82785" x2="8.34559" y2="15.823" gradientUnits="userSpaceOnUse">
<stop stop-color="#8EC752"/>
<stop offset="0.18" stop-color="#83BE4F"/>
<stop offset="1" stop-color="#539943"/>
</linearGradient>
<linearGradient id="paint17_linear_6_1167" x1="2.83805" y1="4.7553" x2="9.87192" y2="14.7504" gradientUnits="userSpaceOnUse">
<stop stop-color="#8EC752"/>
<stop offset="0.18" stop-color="#83BE4F"/>
<stop offset="1" stop-color="#539943"/>
</linearGradient>
<linearGradient id="paint18_linear_6_1167" x1="3.69956" y1="4.15045" x2="10.7299" y2="14.1456" gradientUnits="userSpaceOnUse">
<stop stop-color="#8EC752"/>
<stop offset="0.18" stop-color="#83BE4F"/>
<stop offset="1" stop-color="#539943"/>
</linearGradient>
<linearGradient id="paint19_linear_6_1167" x1="4.94819" y1="3.27104" x2="11.9786" y2="13.2697" gradientUnits="userSpaceOnUse">
<stop stop-color="#8EC752"/>
<stop offset="0.18" stop-color="#83BE4F"/>
<stop offset="1" stop-color="#539943"/>
</linearGradient>
<linearGradient id="paint20_linear_6_1167" x1="5.95049" y1="2.56433" x2="12.9844" y2="12.563" gradientUnits="userSpaceOnUse">
<stop stop-color="#8EC752"/>
<stop offset="0.18" stop-color="#83BE4F"/>
<stop offset="1" stop-color="#539943"/>
</linearGradient>
<linearGradient id="paint21_linear_6_1167" x1="6.9422" y1="1.86806" x2="13.9761" y2="11.8632" gradientUnits="userSpaceOnUse">
<stop stop-color="#8EC752"/>
<stop offset="0.18" stop-color="#83BE4F"/>
<stop offset="1" stop-color="#539943"/>
</linearGradient>
<linearGradient id="paint22_linear_6_1167" x1="8.11347" y1="1.04505" x2="15.1438" y2="11.0437" gradientUnits="userSpaceOnUse">
<stop stop-color="#8EC752"/>
<stop offset="0.18" stop-color="#83BE4F"/>
<stop offset="1" stop-color="#539943"/>
</linearGradient>
<linearGradient id="paint23_linear_6_1167" x1="4.89539" y1="3.30635" x2="11.9258" y2="13.305" gradientUnits="userSpaceOnUse">
<stop stop-color="#8EC752"/>
<stop offset="0.18" stop-color="#83BE4F"/>
<stop offset="1" stop-color="#539943"/>
</linearGradient>
<linearGradient id="paint24_linear_6_1167" x1="5.67975" y1="2.75763" x2="12.7101" y2="12.7528" gradientUnits="userSpaceOnUse">
<stop stop-color="#8EC752"/>
<stop offset="0.18" stop-color="#83BE4F"/>
<stop offset="1" stop-color="#539943"/>
</linearGradient>
<linearGradient id="paint25_linear_6_1167" x1="6.56256" y1="2.13517" x2="13.5929" y2="12.1338" gradientUnits="userSpaceOnUse">
<stop stop-color="#8EC752"/>
<stop offset="0.18" stop-color="#83BE4F"/>
<stop offset="1" stop-color="#539943"/>
</linearGradient>
<linearGradient id="paint26_linear_6_1167" x1="7.42759" y1="1.52673" x2="14.458" y2="11.5254" gradientUnits="userSpaceOnUse">
<stop stop-color="#8EC752"/>
<stop offset="0.18" stop-color="#83BE4F"/>
<stop offset="1" stop-color="#539943"/>
</linearGradient>
<linearGradient id="paint27_linear_6_1167" x1="8.2927" y1="0.918275" x2="15.3231" y2="10.9169" gradientUnits="userSpaceOnUse">
<stop stop-color="#8EC752"/>
<stop offset="0.18" stop-color="#83BE4F"/>
<stop offset="1" stop-color="#539943"/>
</linearGradient>
<linearGradient id="paint28_linear_6_1167" x1="3.865" y1="4.03093" x2="10.8953" y2="14.0296" gradientUnits="userSpaceOnUse">
<stop stop-color="#8EC752"/>
<stop offset="0.18" stop-color="#83BE4F"/>
<stop offset="1" stop-color="#539943"/>
</linearGradient>
<linearGradient id="paint29_linear_6_1167" x1="2.46856" y1="5.01214" x2="9.49894" y2="15.0108" gradientUnits="userSpaceOnUse">
<stop stop-color="#8EC752"/>
<stop offset="0.18" stop-color="#83BE4F"/>
<stop offset="1" stop-color="#539943"/>
</linearGradient>
<linearGradient id="paint30_linear_6_1167" x1="1.1357" y1="5.95106" x2="8.16607" y2="15.9497" gradientUnits="userSpaceOnUse">
<stop stop-color="#8EC752"/>
<stop offset="0.18" stop-color="#83BE4F"/>
<stop offset="1" stop-color="#539943"/>
</linearGradient>
<linearGradient id="paint31_linear_6_1167" x1="1.10052" y1="5.9757" x2="8.13441" y2="15.9744" gradientUnits="userSpaceOnUse">
<stop stop-color="#8EC752"/>
<stop offset="0.18" stop-color="#83BE4F"/>
<stop offset="1" stop-color="#539943"/>
</linearGradient>
<linearGradient id="paint32_linear_6_1167" x1="-0.587699" y1="7.16452" x2="6.44267" y2="17.1632" gradientUnits="userSpaceOnUse">
<stop stop-color="#8EC752"/>
<stop offset="0.18" stop-color="#83BE4F"/>
<stop offset="1" stop-color="#539943"/>
</linearGradient>
<linearGradient id="paint33_linear_6_1167" x1="-1.46308" y1="7.77992" x2="5.57081" y2="17.7751" gradientUnits="userSpaceOnUse">
<stop stop-color="#8EC752"/>
<stop offset="0.18" stop-color="#83BE4F"/>
<stop offset="1" stop-color="#539943"/>
</linearGradient>
<linearGradient id="paint34_linear_6_1167" x1="2.33151" y1="5.11039" x2="9.36188" y2="15.1091" gradientUnits="userSpaceOnUse">
<stop stop-color="#8EC752"/>
<stop offset="0.18" stop-color="#83BE4F"/>
<stop offset="1" stop-color="#539943"/>
</linearGradient>
<linearGradient id="paint35_linear_6_1167" x1="3.35148" y1="4.39311" x2="10.3818" y2="14.3918" gradientUnits="userSpaceOnUse">
<stop stop-color="#8EC752"/>
<stop offset="0.18" stop-color="#83BE4F"/>
<stop offset="1" stop-color="#539943"/>
</linearGradient>
<linearGradient id="paint36_linear_6_1167" x1="0.777047" y1="6.20435" x2="7.8074" y2="16.203" gradientUnits="userSpaceOnUse">
<stop stop-color="#8EC752"/>
<stop offset="0.18" stop-color="#83BE4F"/>
<stop offset="1" stop-color="#539943"/>
</linearGradient>
<linearGradient id="paint37_linear_6_1167" x1="-0.756323" y1="7.28046" x2="6.27405" y2="17.2791" gradientUnits="userSpaceOnUse">
<stop stop-color="#8EC752"/>
<stop offset="0.18" stop-color="#83BE4F"/>
<stop offset="1" stop-color="#539943"/>
</linearGradient>
<linearGradient id="paint38_linear_6_1167" x1="4.52595" y1="3.56654" x2="11.5563" y2="13.5652" gradientUnits="userSpaceOnUse">
<stop stop-color="#8EC752"/>
<stop offset="0.18" stop-color="#83BE4F"/>
<stop offset="1" stop-color="#539943"/>
</linearGradient>
<linearGradient id="paint39_linear_6_1167" x1="3.61525" y1="4.20663" x2="10.6491" y2="14.2053" gradientUnits="userSpaceOnUse">
<stop stop-color="#8EC752"/>
<stop offset="0.18" stop-color="#83BE4F"/>
<stop offset="1" stop-color="#539943"/>
</linearGradient>
<linearGradient id="paint40_linear_6_1167" x1="5.60231" y1="2.81036" x2="12.6327" y2="12.809" gradientUnits="userSpaceOnUse">
<stop stop-color="#8EC752"/>
<stop offset="0.18" stop-color="#83BE4F"/>
<stop offset="1" stop-color="#539943"/>
</linearGradient>
<linearGradient id="paint41_linear_6_1167" x1="6.62557" y1="2.08947" x2="13.6559" y2="12.0881" gradientUnits="userSpaceOnUse">
<stop stop-color="#8EC752"/>
<stop offset="0.18" stop-color="#83BE4F"/>
<stop offset="1" stop-color="#539943"/>
</linearGradient>
<linearGradient id="paint42_linear_6_1167" x1="7.5261" y1="1.45645" x2="14.5565" y2="11.4551" gradientUnits="userSpaceOnUse">
<stop stop-color="#8EC752"/>
<stop offset="0.18" stop-color="#83BE4F"/>
<stop offset="1" stop-color="#539943"/>
</linearGradient>
<linearGradient id="paint43_linear_6_1167" x1="8.39137" y1="0.848015" x2="15.4253" y2="10.8467" gradientUnits="userSpaceOnUse">
<stop stop-color="#8EC752"/>
<stop offset="0.18" stop-color="#83BE4F"/>
<stop offset="1" stop-color="#539943"/>
</linearGradient>
<linearGradient id="paint44_linear_6_1167" x1="5.6761" y1="2.75761" x2="12.71" y2="12.7563" gradientUnits="userSpaceOnUse">
<stop stop-color="#8EC752"/>
<stop offset="0.18" stop-color="#83BE4F"/>
<stop offset="1" stop-color="#539943"/>
</linearGradient>
<linearGradient id="paint45_linear_6_1167" x1="4.64559" y1="3.48209" x2="11.6759" y2="13.4808" gradientUnits="userSpaceOnUse">
<stop stop-color="#8EC752"/>
<stop offset="0.18" stop-color="#83BE4F"/>
<stop offset="1" stop-color="#539943"/>
</linearGradient>
<linearGradient id="paint46_linear_6_1167" x1="6.55532" y1="2.14239" x2="13.5857" y2="12.1375" gradientUnits="userSpaceOnUse">
<stop stop-color="#8EC752"/>
<stop offset="0.18" stop-color="#83BE4F"/>
<stop offset="1" stop-color="#539943"/>
</linearGradient>
<linearGradient id="paint47_linear_6_1167" x1="7.42065" y1="1.53024" x2="14.451" y2="11.5289" gradientUnits="userSpaceOnUse">
<stop stop-color="#8EC752"/>
<stop offset="0.18" stop-color="#83BE4F"/>
<stop offset="1" stop-color="#539943"/>
</linearGradient>
<linearGradient id="paint48_linear_6_1167" x1="8.28908" y1="0.921818" x2="15.3194" y2="10.9205" gradientUnits="userSpaceOnUse">
<stop stop-color="#8EC752"/>
<stop offset="0.18" stop-color="#83BE4F"/>
<stop offset="1" stop-color="#539943"/>
</linearGradient>
<linearGradient id="paint49_linear_6_1167" x1="-2.93333" y1="8.81388" x2="4.09703" y2="18.8125" gradientUnits="userSpaceOnUse">
<stop stop-color="#8EC752"/>
<stop offset="0.18" stop-color="#83BE4F"/>
<stop offset="1" stop-color="#539943"/>
</linearGradient>
<linearGradient id="paint50_linear_6_1167" x1="2.67955" y1="19.6813" x2="-3.01438" y2="4.21728" gradientUnits="userSpaceOnUse">
<stop offset="0.13" stop-color="#E5F5FD" stop-opacity="0.78"/>
<stop offset="0.3" stop-color="#EFF9FE" stop-opacity="0.6"/>
<stop offset="0.54" stop-color="white" stop-opacity="0.34"/>
<stop offset="0.74" stop-color="white" stop-opacity="0"/>
</linearGradient>
<linearGradient id="paint51_linear_6_1167" x1="14.2153" y1="15.4329" x2="8.52141" y2="-0.0276235" gradientUnits="userSpaceOnUse">
<stop offset="0.13" stop-color="#E5F5FD" stop-opacity="0.78"/>
<stop offset="0.3" stop-color="#EFF9FE" stop-opacity="0.6"/>
<stop offset="0.54" stop-color="white" stop-opacity="0.34"/>
<stop offset="0.74" stop-color="white" stop-opacity="0"/>
</linearGradient>
<linearGradient id="paint52_linear_6_1167" x1="12.0102" y1="16.2453" x2="6.31981" y2="0.781314" gradientUnits="userSpaceOnUse">
<stop offset="0.13" stop-color="#E5F5FD" stop-opacity="0.78"/>
<stop offset="0.3" stop-color="#EFF9FE" stop-opacity="0.6"/>
<stop offset="0.54" stop-color="white" stop-opacity="0.34"/>
<stop offset="0.74" stop-color="white" stop-opacity="0"/>
</linearGradient>
<linearGradient id="paint53_linear_6_1167" x1="13.1039" y1="15.8442" x2="7.41001" y2="0.380196" gradientUnits="userSpaceOnUse">
<stop offset="0.13" stop-color="#E5F5FD" stop-opacity="0.78"/>
<stop offset="0.3" stop-color="#EFF9FE" stop-opacity="0.6"/>
<stop offset="0.54" stop-color="white" stop-opacity="0.34"/>
<stop offset="0.74" stop-color="white" stop-opacity="0"/>
</linearGradient>
<linearGradient id="paint54_linear_6_1167" x1="14.4475" y1="15.3483" x2="8.7536" y2="-0.115684" gradientUnits="userSpaceOnUse">
<stop offset="0.13" stop-color="#E5F5FD" stop-opacity="0.78"/>
<stop offset="0.3" stop-color="#EFF9FE" stop-opacity="0.6"/>
<stop offset="0.54" stop-color="white" stop-opacity="0.34"/>
<stop offset="0.74" stop-color="white" stop-opacity="0"/>
</linearGradient>
<linearGradient id="paint55_linear_6_1167" x1="14.159" y1="15.4539" x2="8.46862" y2="-0.010097" gradientUnits="userSpaceOnUse">
<stop offset="0.13" stop-color="#E5F5FD" stop-opacity="0.78"/>
<stop offset="0.3" stop-color="#EFF9FE" stop-opacity="0.6"/>
<stop offset="0.54" stop-color="white" stop-opacity="0.34"/>
<stop offset="0.74" stop-color="white" stop-opacity="0"/>
</linearGradient>
<linearGradient id="paint56_linear_6_1167" x1="12.6573" y1="16.0062" x2="6.96688" y2="0.542205" gradientUnits="userSpaceOnUse">
<stop offset="0.13" stop-color="#E5F5FD" stop-opacity="0.78"/>
<stop offset="0.3" stop-color="#EFF9FE" stop-opacity="0.6"/>
<stop offset="0.54" stop-color="white" stop-opacity="0.34"/>
<stop offset="0.74" stop-color="white" stop-opacity="0"/>
</linearGradient>
<linearGradient id="paint57_linear_6_1167" x1="14.9679" y1="15.1549" x2="9.27751" y2="-0.305533" gradientUnits="userSpaceOnUse">
<stop offset="0.13" stop-color="#E5F5FD" stop-opacity="0.78"/>
<stop offset="0.3" stop-color="#EFF9FE" stop-opacity="0.6"/>
<stop offset="0.54" stop-color="white" stop-opacity="0.34"/>
<stop offset="0.74" stop-color="white" stop-opacity="0"/>
</linearGradient>
<linearGradient id="paint58_linear_6_1167" x1="13.8567" y1="15.5665" x2="8.16626" y2="0.102544" gradientUnits="userSpaceOnUse">
<stop offset="0.13" stop-color="#E5F5FD" stop-opacity="0.78"/>
<stop offset="0.3" stop-color="#EFF9FE" stop-opacity="0.6"/>
<stop offset="0.54" stop-color="white" stop-opacity="0.34"/>
<stop offset="0.74" stop-color="white" stop-opacity="0"/>
</linearGradient>
<linearGradient id="paint59_linear_6_1167" x1="12.5341" y1="16.0516" x2="6.84015" y2="0.591152" gradientUnits="userSpaceOnUse">
<stop offset="0.13" stop-color="#E5F5FD" stop-opacity="0.78"/>
<stop offset="0.3" stop-color="#EFF9FE" stop-opacity="0.6"/>
<stop offset="0.54" stop-color="white" stop-opacity="0.34"/>
<stop offset="0.74" stop-color="white" stop-opacity="0"/>
</linearGradient>
<linearGradient id="paint60_linear_6_1167" x1="12.2949" y1="16.1397" x2="6.601" y2="0.679274" gradientUnits="userSpaceOnUse">
<stop offset="0.13" stop-color="#E5F5FD" stop-opacity="0.78"/>
<stop offset="0.3" stop-color="#EFF9FE" stop-opacity="0.6"/>
<stop offset="0.54" stop-color="white" stop-opacity="0.34"/>
<stop offset="0.74" stop-color="white" stop-opacity="0"/>
</linearGradient>
<linearGradient id="paint61_linear_6_1167" x1="10.4168" y1="16.8326" x2="4.72642" y2="1.36857" gradientUnits="userSpaceOnUse">
<stop offset="0.13" stop-color="#E5F5FD" stop-opacity="0.78"/>
<stop offset="0.3" stop-color="#EFF9FE" stop-opacity="0.6"/>
<stop offset="0.54" stop-color="white" stop-opacity="0.34"/>
<stop offset="0.74" stop-color="white" stop-opacity="0"/>
</linearGradient>
<linearGradient id="paint62_linear_6_1167" x1="10.125" y1="16.9417" x2="4.4311" y2="1.47766" gradientUnits="userSpaceOnUse">
<stop offset="0.13" stop-color="#E5F5FD" stop-opacity="0.78"/>
<stop offset="0.3" stop-color="#EFF9FE" stop-opacity="0.6"/>
<stop offset="0.54" stop-color="white" stop-opacity="0.34"/>
<stop offset="0.74" stop-color="white" stop-opacity="0"/>
</linearGradient>
<linearGradient id="paint63_linear_6_1167" x1="11.4404" y1="16.4563" x2="5.74652" y2="0.992258" gradientUnits="userSpaceOnUse">
<stop offset="0.13" stop-color="#E5F5FD" stop-opacity="0.78"/>
<stop offset="0.3" stop-color="#EFF9FE" stop-opacity="0.6"/>
<stop offset="0.54" stop-color="white" stop-opacity="0.34"/>
<stop offset="0.74" stop-color="white" stop-opacity="0"/>
</linearGradient>
<linearGradient id="paint64_linear_6_1167" x1="10.0546" y1="16.9661" x2="4.36069" y2="1.50212" gradientUnits="userSpaceOnUse">
<stop offset="0.13" stop-color="#E5F5FD" stop-opacity="0.78"/>
<stop offset="0.3" stop-color="#EFF9FE" stop-opacity="0.6"/>
<stop offset="0.54" stop-color="white" stop-opacity="0.34"/>
<stop offset="0.74" stop-color="white" stop-opacity="0"/>
</linearGradient>
<linearGradient id="paint65_linear_6_1167" x1="8.9398" y1="17.3776" x2="3.24589" y2="1.91366" gradientUnits="userSpaceOnUse">
<stop offset="0.13" stop-color="#E5F5FD" stop-opacity="0.78"/>
<stop offset="0.3" stop-color="#EFF9FE" stop-opacity="0.6"/>
<stop offset="0.54" stop-color="white" stop-opacity="0.34"/>
<stop offset="0.74" stop-color="white" stop-opacity="0"/>
</linearGradient>
<linearGradient id="paint66_linear_6_1167" x1="8.62331" y1="17.4938" x2="2.93289" y2="2.02981" gradientUnits="userSpaceOnUse">
<stop offset="0.13" stop-color="#E5F5FD" stop-opacity="0.78"/>
<stop offset="0.3" stop-color="#EFF9FE" stop-opacity="0.6"/>
<stop offset="0.54" stop-color="white" stop-opacity="0.34"/>
<stop offset="0.74" stop-color="white" stop-opacity="0"/>
</linearGradient>
<linearGradient id="paint67_linear_6_1167" x1="6.90012" y1="18.1266" x2="1.20619" y2="2.66261" gradientUnits="userSpaceOnUse">
<stop offset="0.13" stop-color="#E5F5FD" stop-opacity="0.78"/>
<stop offset="0.3" stop-color="#EFF9FE" stop-opacity="0.6"/>
<stop offset="0.54" stop-color="white" stop-opacity="0.34"/>
<stop offset="0.74" stop-color="white" stop-opacity="0"/>
</linearGradient>
<linearGradient id="paint68_linear_6_1167" x1="7.12514" y1="18.0459" x2="1.43121" y2="2.58192" gradientUnits="userSpaceOnUse">
<stop offset="0.13" stop-color="#E5F5FD" stop-opacity="0.78"/>
<stop offset="0.3" stop-color="#EFF9FE" stop-opacity="0.6"/>
<stop offset="0.54" stop-color="white" stop-opacity="0.34"/>
<stop offset="0.74" stop-color="white" stop-opacity="0"/>
</linearGradient>
<linearGradient id="paint69_linear_6_1167" x1="3.93167" y1="19.2206" x2="-1.76227" y2="3.75655" gradientUnits="userSpaceOnUse">
<stop offset="0.13" stop-color="#E5F5FD" stop-opacity="0.78"/>
<stop offset="0.3" stop-color="#EFF9FE" stop-opacity="0.6"/>
<stop offset="0.54" stop-color="white" stop-opacity="0.34"/>
<stop offset="0.74" stop-color="white" stop-opacity="0"/>
</linearGradient>
<linearGradient id="paint70_linear_6_1167" x1="5.3033" y1="18.7141" x2="-0.390635" y2="3.25363" gradientUnits="userSpaceOnUse">
<stop offset="0.13" stop-color="#E5F5FD" stop-opacity="0.78"/>
<stop offset="0.3" stop-color="#EFF9FE" stop-opacity="0.6"/>
<stop offset="0.54" stop-color="white" stop-opacity="0.34"/>
<stop offset="0.74" stop-color="white" stop-opacity="0"/>
</linearGradient>
</defs>
</svg>
