<svg width="15" height="15" viewBox="0 0 15 15" fill="none" xmlns="http://www.w3.org/2000/svg">
<path d="M4.3024 13.9999H2.32096C1.97062 13.9999 1.63463 13.863 1.3869 13.6192C1.13917 13.3754 1 13.0447 1 12.6999V8.14995C1 7.80518 1.13917 7.47452 1.3869 7.23072C1.63463 6.98693 1.97062 6.84996 2.32096 6.84996H4.3024M8.92576 5.54997V2.94999C8.92576 2.43282 8.71701 1.93683 8.34541 1.57114C7.97382 1.20544 7.46983 1 6.94432 1L4.3024 6.84996V13.9999H11.7526C12.0712 14.0035 12.3803 13.8936 12.6231 13.6905C12.8658 13.4875 13.0258 13.2049 13.0736 12.8949L13.985 7.04496C14.0138 6.85864 14.001 6.66841 13.9476 6.48743C13.8942 6.30645 13.8015 6.13906 13.6758 5.99685C13.5502 5.85465 13.3946 5.74103 13.2199 5.66386C13.0452 5.5867 12.8556 5.54784 12.6641 5.54997H8.92576Z" stroke="#303030" stroke-linecap="round" stroke-linejoin="round"/>
</svg>
