<?xml version="1.0" encoding="utf-8"?>
<!-- Generator: Adobe Illustrator 22.0.1, SVG Export Plug-In . SVG Version: 6.00 Build 0)  -->
<svg version="1.1" id="Layer_1" xmlns="http://www.w3.org/2000/svg" xmlns:xlink="http://www.w3.org/1999/xlink" x="0px" y="0px"
	 height="40px" viewBox="0 0 120 261" style="enable-background:new 0 0 120 261;" xml:space="preserve">
<g>
	<path id="XMLID_184_" d="M48.1,98.2c0,0-1.8,8,15.3,25.7c0,0,9.8,9.8,18.2,26.5l-10,8.5c0,0-5.5-13.2-16.7-25.6
		c0,0-15.3-19.2-15.3-25.8L48.1,98.2z"/>
	<path id="XMLID_183_" d="M68.5,112.5c12.7,14.2,23.2,25.4,21.2,38.5c8.6-7.1,3.9-19.3,3-27.7c-5.9-15.7-24.2-23.6-28.4-43.5
		c0,0-3.3,0.4-9.3,2.7C54.9,82.5,53.1,95.3,68.5,112.5z"/>
	<path id="XMLID_182_" d="M64.7,169.7C52.5,144.1,43,141,33.3,122.1c-7.1-13.8-2.5,11.5-0.7,21.8c0.3,0.4,0.6,1.5,0.9,1.9
		c10.1,13.9,14.1,15.9,19.8,31c0,0,3.4-3.6,10.8-7.1C64,169.2,64.7,169.7,64.7,169.7z"/>
	<path id="XMLID_181_" d="M81.6,203.9c26.9-21.5,36.3-40.7,20-64.1c0,0,6.2,23.7-17.4,43.5c-24.9,20.9-47.2,33.6-27.1,69.9
		C56.9,236.7,53.9,226,81.6,203.9z"/>
	<path id="XMLID_180_" d="M68.2,179.5c26.9-21.5,36.3-40.7,20-64.1c0,0,6.2,23.7-17.4,43.5c-24.9,20.9-47.2,33.6-27.1,69.9
		C43.5,212.3,40.5,201.6,68.2,179.5z"/>
	<path id="XMLID_179_" d="M57.6,96.2c26.9-21.5,36.3-40.7,20-64.1c0,0,6.2,23.7-17.4,43.5C35.3,96.5,13,109.2,33.1,145.5
		C31.2,133.4,29.9,118.3,57.6,96.2z"/>
	<path id="XMLID_178_" d="M44.3,72.9c26.9-21.5,36.3-40.7,20-64.1c0,0,6.2,23.7-17.4,43.5C22,73.2-0.2,85.9,19.9,122.2
		C19.6,105.7,16.6,95,44.3,72.9z"/>
</g>
</svg>
